<svg width="79" height="16" viewBox="0 0 79 16" fill="none" xmlns="http://www.w3.org/2000/svg">
<path d="M13.3628 8.11823V8.4056C13.3628 10.1155 11.969 11.4948 10.2735 11.4948H0V0H9.84245C11.5379 0 12.9317 1.39375 12.9317 3.08924V3.37661C12.9317 4.23872 12.5725 5.01462 12.0121 5.575C12.8167 6.13537 13.3628 7.06932 13.3628 8.11823ZM3.59214 2.87371V4.31056H8.62113C9.00908 4.31056 9.33956 3.99446 9.33956 3.59214C9.33956 3.20419 9.00908 2.87371 8.62113 2.87371H3.59214ZM9.77061 7.9027C9.77061 7.51475 9.44014 7.18427 9.05219 7.18427H3.59214V8.62113H9.05219C9.44014 8.62113 9.77061 8.30502 9.77061 7.9027Z" fill="#004684"/>
<path d="M20.2608 7.18427V11.4948H16.6686V0H20.2608V4.31056H27.445V0H31.0372V11.4948H27.445V7.18427H20.2608Z" fill="#004684"/>
<path d="M44.3915 0H47.9837V6.394C47.9837 9.33956 45.5985 11.7104 42.6673 11.7104H39.6499C36.7043 11.7104 34.3335 9.33956 34.3335 6.394V0H37.9257V6.10663C37.9257 7.45728 39.0177 8.54929 40.3683 8.54929H41.9489C43.2851 8.54929 44.3915 7.45728 44.3915 6.10663V0Z" fill="#004684"/>
<path d="M68.5739 0.131063H72.1661V11.6259H68.574L68.5739 0.131063Z" fill="#004684"/>
<path d="M75.4079 0.131063H79V11.6259H75.4079L75.4079 0.131063Z" fill="#004684"/>
<path d="M51.2508 0.00506838V3.30963L53.8731 5.56751L58.2436 9.30229L65.2364 3.422V0.00506838L58.2436 5.88536L51.2508 0.00506838Z" fill="#004684"/>
<path d="M59.8328 10.6531L65.2363 6.04422V15.3414L59.8328 10.6531Z" fill="#ABD96F"/>
<path d="M53.6347 7.82493L51.2508 5.77293V11.7327H53.6347V7.82493Z" fill="#004684"/>
</svg>
