<svg width="801" height="280" viewBox="0 0 801 280" fill="none" xmlns="http://www.w3.org/2000/svg">
<g opacity="0.75">
<path d="M254.142 83.7815H218.797V223.394H254.142V83.7815Z" fill="#104E84"/>
<path d="M248.366 73.7725H224.572V132.442H248.366V73.7725Z" fill="#104E84"/>
<path d="M243.068 67.4232H229.87V99.9661H243.068V67.4232Z" fill="#104E84"/>
<path d="M240.967 84.1457H231.972V61.968H235.217H238.432H240.967V84.1457Z" fill="#104E84"/>
<path d="M235.877 74.4882H234.901V52.3105H235.253H235.602H235.877V74.4882Z" fill="#104E84"/>
<path d="M238.037 66.8217H237.062V44.644H237.414H237.762H238.037V66.8217Z" fill="#104E84"/>
<path d="M255.084 83.4243H217.854V84.9106H255.084V83.4243Z" fill="#104E84"/>
<path d="M249.234 73.0568H223.704V74.4882H249.234V73.0568Z" fill="#104E84"/>
<path d="M243.621 66.8218H228.908V67.9197H243.621V66.8218Z" fill="#104E84"/>
<path opacity="0.29" d="M227.867 76.1532H226.76V82.301H227.867V76.1532Z" fill="#104E84"/>
<path opacity="0.29" d="M230.927 76.1532H229.821V82.301H230.927V76.1532Z" fill="#104E84"/>
<path opacity="0.29" d="M233.988 76.1532H232.882V82.301H233.988V76.1532Z" fill="#104E84"/>
<path opacity="0.29" d="M237.049 76.1532H235.942V82.301H237.049V76.1532Z" fill="#104E84"/>
<path opacity="0.29" d="M240.109 76.1532H239.003V82.301H240.109V76.1532Z" fill="#104E84"/>
<path opacity="0.29" d="M243.17 76.1532H242.063V82.301H243.17V76.1532Z" fill="#104E84"/>
<path opacity="0.29" d="M246.231 76.1532H245.124V82.301H246.231V76.1532Z" fill="#104E84"/>
<path d="M224.572 89.3479H221.899V96.6414H224.572V89.3479Z" fill="#104E84"/>
<path opacity="0.29" d="M229.865 89.3479H227.193V96.6414H229.865V89.3479Z" fill="#104E84"/>
<path d="M235.159 89.3479H232.486V96.6414H235.159V89.3479Z" fill="#104E84"/>
<path d="M240.452 89.3479H237.779V96.6414H240.452V89.3479Z" fill="#104E84"/>
<path d="M245.746 89.3479H243.073V96.6414H245.746V89.3479Z" fill="#104E84"/>
<path d="M251.039 89.3479H248.366V96.6414H251.039V89.3479Z" fill="#104E84"/>
<path d="M224.572 100.717H221.899V108.01H224.572V100.717Z" fill="#104E84"/>
<path d="M229.865 100.717H227.193V108.01H229.865V100.717Z" fill="#104E84"/>
<path d="M235.159 100.717H232.486V108.01H235.159V100.717Z" fill="#104E84"/>
<path opacity="0.29" d="M240.452 100.717H237.779V108.01H240.452V100.717Z" fill="#104E84"/>
<path d="M245.746 100.717H243.073V108.01H245.746V100.717Z" fill="#104E84"/>
<path d="M251.039 100.717H248.366V108.01H251.039V100.717Z" fill="#104E84"/>
<path d="M224.572 112.086H221.899V119.379H224.572V112.086Z" fill="#104E84"/>
<path d="M229.865 112.086H227.193V119.379H229.865V112.086Z" fill="#104E84"/>
<path d="M235.159 112.086H232.486V119.379H235.159V112.086Z" fill="#104E84"/>
<path d="M240.452 112.086H237.779V119.379H240.452V112.086Z" fill="#104E84"/>
<path opacity="0.29" d="M245.746 112.086H243.073V119.379H245.746V112.086Z" fill="#104E84"/>
<path opacity="0.29" d="M251.039 112.086H248.366V119.379H251.039V112.086Z" fill="#104E84"/>
<path opacity="0.29" d="M224.572 123.455H221.899V130.748H224.572V123.455Z" fill="#104E84"/>
<path d="M229.865 123.455H227.193V130.748H229.865V123.455Z" fill="#104E84"/>
<path d="M235.159 123.455H232.486V130.748H235.159V123.455Z" fill="#104E84"/>
<path d="M240.452 123.455H237.779V130.748H240.452V123.455Z" fill="#104E84"/>
<path d="M245.746 123.455H243.073V130.748H245.746V123.455Z" fill="#104E84"/>
<path d="M251.039 123.455H248.366V130.748H251.039V123.455Z" fill="#104E84"/>
<path d="M224.572 134.823H221.899V142.117H224.572V134.823Z" fill="#104E84"/>
<path opacity="0.29" d="M229.865 134.823H227.193V142.117H229.865V134.823Z" fill="#104E84"/>
<path d="M235.159 134.823H232.486V142.117H235.159V134.823Z" fill="#104E84"/>
<path opacity="0.29" d="M240.452 134.823H237.779V142.117H240.452V134.823Z" fill="#104E84"/>
<path d="M245.746 134.823H243.073V142.117H245.746V134.823Z" fill="#104E84"/>
<path d="M251.039 134.823H248.366V142.117H251.039V134.823Z" fill="#104E84"/>
<path d="M224.572 146.192H221.899V153.486H224.572V146.192Z" fill="#104E84"/>
<path d="M229.865 146.192H227.193V153.486H229.865V146.192Z" fill="#104E84"/>
<path d="M235.159 146.192H232.486V153.486H235.159V146.192Z" fill="#104E84"/>
<path d="M240.452 146.192H237.779V153.486H240.452V146.192Z" fill="#104E84"/>
<path d="M245.746 146.192H243.073V153.486H245.746V146.192Z" fill="#104E84"/>
<path opacity="0.29" d="M251.039 146.192H248.366V153.486H251.039V146.192Z" fill="#104E84"/>
<path d="M224.572 157.561H221.899V164.854H224.572V157.561Z" fill="#104E84"/>
<path opacity="0.29" d="M229.865 157.561H227.193V164.854H229.865V157.561Z" fill="#104E84"/>
<path opacity="0.29" d="M235.159 157.561H232.486V164.854H235.159V157.561Z" fill="#104E84"/>
<path d="M240.452 157.561H237.779V164.854H240.452V157.561Z" fill="#104E84"/>
<path d="M245.746 157.561H243.073V164.854H245.746V157.561Z" fill="#104E84"/>
<path d="M251.039 157.561H248.366V164.854H251.039V157.561Z" fill="#104E84"/>
<path d="M224.572 168.93H221.899V176.223H224.572V168.93Z" fill="#104E84"/>
<path d="M229.865 168.93H227.193V176.223H229.865V168.93Z" fill="#104E84"/>
<path d="M235.159 168.93H232.486V176.223H235.159V168.93Z" fill="#104E84"/>
<path d="M240.452 168.93H237.779V176.223H240.452V168.93Z" fill="#104E84"/>
<path opacity="0.29" d="M245.746 168.93H243.073V176.223H245.746V168.93Z" fill="#104E84"/>
<path d="M251.039 168.93H248.366V176.223H251.039V168.93Z" fill="#104E84"/>
<path d="M224.572 180.299H221.899V187.592H224.572V180.299Z" fill="#104E84"/>
<path opacity="0.29" d="M229.865 180.299H227.193V187.592H229.865V180.299Z" fill="#104E84"/>
<path d="M235.159 180.299H232.486V187.592H235.159V180.299Z" fill="#104E84"/>
<path d="M240.452 180.299H237.779V187.592H240.452V180.299Z" fill="#104E84"/>
<path d="M245.746 180.299H243.073V187.592H245.746V180.299Z" fill="#104E84"/>
<path d="M251.039 180.299H248.366V187.592H251.039V180.299Z" fill="#104E84"/>
<path d="M224.572 191.668H221.899V198.961H224.572V191.668Z" fill="#104E84"/>
<path d="M229.865 191.668H227.193V198.961H229.865V191.668Z" fill="#104E84"/>
<path d="M235.159 191.668H232.486V198.961H235.159V191.668Z" fill="#104E84"/>
<path opacity="0.29" d="M240.452 191.668H237.779V198.961H240.452V191.668Z" fill="#104E84"/>
<path d="M245.746 191.668H243.073V198.961H245.746V191.668Z" fill="#104E84"/>
<path opacity="0.29" d="M251.039 191.668H248.366V198.961H251.039V191.668Z" fill="#104E84"/>
<path opacity="0.29" d="M224.572 203.037H221.899V210.33H224.572V203.037Z" fill="#104E84"/>
<path d="M229.865 203.037H227.193V210.33H229.865V203.037Z" fill="#104E84"/>
<path opacity="0.29" d="M235.159 203.037H232.486V210.33H235.159V203.037Z" fill="#104E84"/>
<path d="M240.452 203.037H237.779V210.33H240.452V203.037Z" fill="#104E84"/>
<path d="M245.746 203.037H243.073V210.33H245.746V203.037Z" fill="#104E84"/>
<path d="M251.039 203.037H248.366V210.33H251.039V203.037Z" fill="#104E84"/>
<path d="M172.965 89.0923H116.147V206.703H172.965V89.0923Z" fill="#104E84"/>
<path d="M174.579 87.0697H114.533V90.3944H174.579V87.0697Z" fill="#104E84"/>
<path d="M171.055 82.8148H118.057V98.6152H171.055V82.8148Z" fill="#104E84"/>
<path d="M143.1 76.3496H122.114V93.6135H143.1V76.3496Z" fill="#104E84"/>
<path d="M134.259 81.2153H122.114V72.1274H130.825L134.259 81.2153Z" fill="#104E84"/>
<path d="M128.186 64.5842H127.009V84.8266H128.186V64.5842Z" fill="#104E84"/>
<path d="M127.598 64.5843C128.182 64.5843 128.655 64.1146 128.655 63.5352C128.655 62.9557 128.182 62.486 127.598 62.486C127.014 62.486 126.541 62.9557 126.541 63.5352C126.541 64.1146 127.014 64.5843 127.598 64.5843Z" fill="#104E84"/>
<path d="M643.467 215.657H581.274L573.512 42.7365L643.467 57.1464V215.657Z" fill="#104E84"/>
<path d="M372.125 116.903V59.0918H362.371V43.6065H358.886V20.8949H339.688V4.20277H337.979V20.8949H334.218V0H332.51V20.8949H320.373V59.0918H314.103V116.903H308.729V222.203H375.904V116.903H372.125Z" fill="#104E84"/>
<path d="M779.844 213.512H36.7405V231.051H779.844V213.512Z" fill="#104E84"/>
<path d="M474.154 226.754H441.248L454.07 161.365H474.154V226.754Z" fill="#265E8F"/>
<path d="M790.304 229.301H10.0791V280H790.304V229.301Z" fill="#265E8F"/>
<path d="M447.187 105.751V76.7756H436.622V65.7441H430.969V56.4775H428.986V40.5919H428.473V56.4775H426.49V65.7441H420.837V76.7756H410.352V105.751H408.172V158.358H391.916V218.327H408.172H424.429H449.286V105.751H447.187Z" fill="#265E8F"/>
<path d="M507.909 139.036H456.769V139.959H459.082V225.773H505.595V139.959H507.909V139.036Z" fill="#265E8F"/>
<path d="M274.708 160.411H229.366V231.896H274.708V160.411Z" fill="#265E8F"/>
<path d="M222.536 197.036H144.556V231.896H222.536V197.036Z" fill="#265E8F"/>
<path d="M203.473 119.153H186.354V204.758H203.473V119.153Z" fill="#265E8F"/>
<path d="M191.023 96.3176H190.133V142.871H191.023V96.3176Z" fill="#265E8F"/>
<path d="M193.913 99.8478H193.023V146.401H193.913V99.8478Z" fill="#265E8F"/>
<path d="M198.137 113.858H187.674V125.331H198.137V113.858Z" fill="#265E8F"/>
<path d="M249.273 173.208H219.481V231.896H249.273V173.208Z" fill="#265E8F"/>
<path d="M337.982 111.101H282.058V231.896H337.982V111.101Z" fill="#265E8F"/>
<path d="M332.487 106.95H287.552V127.069H332.487V106.95Z" fill="#265E8F"/>
<path d="M342.317 113.629H277.723V115.041H342.317V113.629Z" fill="#265E8F"/>
<path d="M298.276 170.891H271.925V231.896H298.276V170.891Z" fill="#265E8F"/>
<path d="M113.43 168.574H83.1931V231.896H113.43V168.574Z" fill="#265E8F"/>
<path d="M153.226 151.365H92.9753V231.896H153.226V151.365Z" fill="#265E8F"/>
<path d="M154.783 148.276H89.4604V151.365H154.783V148.276Z" fill="#265E8F"/>
<path d="M122.122 139.892H95.6433V156.219H122.122V139.892Z" fill="#265E8F"/>
<path d="M135.218 139.892H130.771V149.821H135.218V139.892Z" fill="#265E8F"/>
<path d="M144.556 139.892H139.665V149.821H144.556V139.892Z" fill="#265E8F"/>
<path d="M98.3114 207.406H66.7407V231.896H98.3114V207.406Z" fill="#265E8F"/>
<path d="M69.7655 197.036H54.8164V231.896H69.7655V197.036Z" fill="#265E8F"/>
<path d="M62.2905 219.651H36.7405V231.896H62.2905V219.651Z" fill="#265E8F"/>
<path d="M647.315 204.758H332.487V231.896H647.315V204.758Z" fill="#265E8F"/>
<path d="M622.176 129.637C620.194 129.637 618.569 131.15 618.407 133.076L613.976 132.933C613.988 132.502 613.995 132.071 613.995 131.639C613.995 126.166 613.043 120.839 611.218 115.842L614.92 114.49C615.502 115.821 616.837 116.753 618.393 116.753C620.482 116.753 622.176 115.072 622.176 112.998C622.176 110.925 620.482 109.244 618.393 109.244C616.303 109.244 614.609 110.925 614.609 112.998C614.609 113.381 614.667 113.75 614.775 114.098L611.074 115.45C608.965 109.837 605.75 104.651 601.538 100.158L604.434 97.4644C605.113 98.1083 606.033 98.5042 607.046 98.5042C609.136 98.5042 610.83 96.8232 610.83 94.7499C610.83 92.6766 609.136 90.9955 607.046 90.9955C604.957 90.9955 603.263 92.6766 603.263 94.7499C603.263 95.6678 603.596 96.5084 604.147 97.1607L601.25 99.8542C600.952 99.5414 600.649 99.2317 600.341 98.9259C595.955 94.5735 590.849 91.1953 585.289 88.9005L586.883 85.0506C587.244 85.1645 587.629 85.2263 588.028 85.2263C590.118 85.2263 591.811 83.5453 591.811 81.4719C591.811 79.3986 590.118 77.7176 588.028 77.7176C585.939 77.7176 584.245 79.3986 584.245 81.4719C584.245 83.0016 585.167 84.3168 586.49 84.9019L584.901 88.7428C579.926 86.7423 574.597 85.6039 569.101 85.4071L569.274 80.1451C569.314 80.1464 569.353 80.1481 569.394 80.1481C571.483 80.1481 573.177 78.4671 573.177 76.3937C573.177 74.3204 571.483 72.639 569.394 72.639C567.305 72.639 565.611 74.3201 565.611 76.3937C565.611 78.2853 567.021 79.8497 568.854 80.1097L568.681 85.3947C568.248 85.383 567.813 85.3763 567.377 85.3763C562.085 85.3763 556.928 86.2458 552.071 87.9161L550.546 83.6214C551.921 83.0594 552.891 81.7165 552.891 80.1484C552.891 78.0748 551.197 76.3941 549.108 76.3941C547.018 76.3941 545.324 78.0751 545.324 80.1484C545.324 82.2217 547.018 83.9031 549.108 83.9031C549.469 83.9031 549.818 83.8517 550.149 83.7581L551.675 88.0544C545.784 90.1398 540.345 93.4087 535.655 97.7384L532.89 94.8104C533.509 94.1421 533.886 93.2506 533.886 92.2719C533.886 90.1983 532.192 88.5172 530.103 88.5172C528.014 88.5172 526.32 90.1983 526.32 92.2719C526.32 94.3456 528.014 96.0263 530.103 96.0263C531.055 96.0263 531.924 95.6768 532.589 95.1011L535.349 98.0241C535.034 98.3201 534.721 98.6209 534.413 98.9266C530.512 102.798 527.389 107.235 525.118 112.05L521.605 110.441C521.732 110.065 521.802 109.663 521.802 109.245C521.802 107.171 520.108 105.49 518.018 105.49C515.929 105.49 514.233 107.171 514.233 109.244C514.233 111.317 515.927 112.998 518.017 112.998C519.536 112.998 520.845 112.11 521.447 110.828L524.94 112.428C522.433 117.874 521.012 123.796 520.789 129.927L516.279 129.781C516.223 127.756 514.553 126.131 512.498 126.131C510.408 126.131 508.715 127.812 508.715 129.886C508.715 131.959 510.409 133.64 512.498 133.64C514.481 133.64 516.107 132.125 516.267 130.198L520.776 130.344C520.764 130.775 520.757 131.206 520.757 131.638C520.757 137.111 521.709 142.438 523.534 147.435L519.832 148.787C519.25 147.456 517.915 146.524 516.359 146.524C514.27 146.524 512.576 148.205 512.576 150.278C512.576 152.352 514.27 154.032 516.359 154.032C518.449 154.032 520.143 152.351 520.143 150.278C520.143 149.895 520.085 149.526 519.978 149.178L523.678 147.826C525.787 153.439 529.002 158.625 533.214 163.119L530.318 165.812C529.639 165.168 528.719 164.772 527.706 164.772C525.616 164.772 523.923 166.453 523.923 168.527C523.923 170.601 525.617 172.281 527.706 172.281C529.795 172.281 531.489 170.6 531.489 168.527C531.489 167.609 531.157 166.768 530.606 166.116L533.502 163.423C533.801 163.735 534.104 164.045 534.412 164.351C537.366 167.282 540.646 169.771 544.172 171.785L521.36 213.512H517.265V214.705H515.26V217.074H619.492V214.705H617.487V213.512H613.392L590.58 171.785C593.619 170.049 596.476 167.96 599.099 165.539L602.796 169.454C602.002 170.142 601.5 171.153 601.5 172.281C601.5 174.355 603.194 176.036 605.283 176.036C607.372 176.036 609.066 174.355 609.066 172.281C609.066 170.208 607.372 168.527 605.283 168.527C604.482 168.527 603.74 168.775 603.128 169.196L599.405 165.253C599.72 164.957 600.032 164.657 600.34 164.351C604.241 160.48 607.365 156.043 609.635 151.227L613.752 153.113C613.678 153.408 613.638 153.715 613.638 154.033C613.638 156.106 615.331 157.787 617.421 157.787C619.51 157.787 621.204 156.106 621.204 154.033C621.204 151.959 619.51 150.278 617.421 150.278C615.8 150.278 614.417 151.291 613.879 152.712L609.812 150.849C612.319 145.402 613.74 139.48 613.963 133.35L618.395 133.493C618.449 135.52 620.12 137.146 622.176 137.146C624.265 137.146 625.959 135.465 625.959 133.391C625.959 131.318 624.265 129.637 622.176 129.637ZM612.733 131.639C612.733 132.057 612.727 132.475 612.716 132.892L599.664 132.471C599.671 132.195 599.674 131.917 599.674 131.639C599.674 127.821 598.997 124.158 597.758 120.76L610.034 116.275C611.808 121.135 612.733 126.316 612.733 131.639ZM599.033 132.451L569.916 131.512C569.907 131.324 569.876 131.141 569.828 130.965L597.166 120.977C598.38 124.307 599.044 127.898 599.044 131.639C599.044 131.91 599.04 132.181 599.033 132.451ZM535.719 130.826L564.836 131.766C564.845 131.954 564.876 132.137 564.924 132.312L537.586 142.301C536.372 138.97 535.708 135.38 535.708 131.639C535.708 131.367 535.712 131.096 535.719 130.826ZM569.369 130.071L590.615 110.315C593.371 113.27 595.562 116.75 597.019 120.586L569.682 130.574C569.598 130.394 569.492 130.225 569.369 130.071ZM569.082 129.766C568.917 129.618 568.733 129.492 568.533 129.391L579.6 102.649C583.678 104.349 587.326 106.873 590.329 110.01L569.082 129.766ZM568.145 129.232C567.992 129.184 567.833 129.15 567.668 129.132L568.615 100.239C572.347 100.382 575.915 101.169 579.211 102.491L568.145 129.232ZM567.248 129.118C567.07 129.126 566.898 129.153 566.731 129.196L557.047 101.93C560.286 100.818 563.761 100.213 567.376 100.213C567.649 100.213 567.922 100.216 568.194 100.223L567.248 129.118ZM566.335 129.336C566.142 129.422 565.961 129.532 565.796 129.661L545.888 108.577C548.972 105.745 552.623 103.513 556.651 102.07L566.335 129.336ZM565.489 129.946C565.365 130.083 565.255 130.234 565.163 130.395L538.716 118.28C540.405 114.727 542.743 111.537 545.581 108.861L565.489 129.946ZM564.986 130.774C564.919 130.956 564.873 131.149 564.85 131.349L535.735 130.409C535.898 126.234 536.883 122.264 538.539 118.658L564.986 130.774ZM565.07 132.703C565.138 132.849 565.22 132.986 565.313 133.115L565.14 133.432L544.137 152.963C541.381 150.007 539.189 146.527 537.732 142.692L565.07 132.703ZM564.505 134.594L551.318 158.714C548.77 157.221 546.45 155.384 544.423 153.268L564.505 134.594ZM565.939 133.721C566.028 133.782 566.121 133.837 566.219 133.886L555.152 160.628C554.086 160.184 553.051 159.682 552.048 159.129L565.939 133.721ZM566.607 134.045C566.76 134.093 566.919 134.127 567.084 134.146L566.137 163.038C562.405 162.895 558.836 162.109 555.541 160.786L566.607 134.045ZM567.376 163.064C567.102 163.064 566.829 163.061 566.557 163.054L567.504 134.16C567.681 134.151 567.854 134.124 568.02 134.081L577.704 161.347C574.466 162.459 570.991 163.064 567.376 163.064ZM568.417 133.942C568.556 133.88 568.689 133.806 568.813 133.721L582.704 159.129C581.237 159.938 579.699 160.635 578.101 161.208L568.417 133.942ZM570.754 135.521L588.864 154.7C587.207 156.221 585.387 157.569 583.434 158.714L570.754 135.521ZM569.962 134.072L569.439 133.115C569.493 133.041 569.543 132.963 569.589 132.882L596.035 144.997C594.347 148.55 592.009 151.741 589.171 154.416L569.962 134.072ZM569.766 132.504C569.834 132.321 569.879 132.128 569.903 131.929L599.017 132.868C598.855 137.044 597.869 141.013 596.214 144.62L569.766 132.504ZM554.913 161.207L549.942 173.219C548.427 172.593 546.946 171.885 545.505 171.096L551.747 159.68C552.77 160.243 553.826 160.754 554.913 161.207ZM555.302 161.365C558.665 162.715 562.307 163.518 566.117 163.664L565.692 176.619C560.349 176.427 555.168 175.321 550.331 173.376L555.302 161.365ZM566.537 163.68C566.815 163.687 567.095 163.69 567.376 163.69C571.064 163.69 574.609 163.072 577.914 161.937L582.262 174.181C577.538 175.804 572.523 176.65 567.376 176.65C566.954 176.65 566.533 176.643 566.112 176.632L566.537 163.68ZM578.311 161.798C579.94 161.214 581.509 160.504 583.005 159.679L589.246 171.095C587.132 172.254 584.93 173.239 582.659 174.043L578.311 161.798ZM609.89 115.883L597.611 120.369C596.125 116.455 593.888 112.903 591.075 109.887L600.617 101.014C604.712 105.383 607.839 110.426 609.89 115.883ZM599.448 99.811C599.747 100.107 600.04 100.407 600.329 100.71L590.788 109.582C587.724 106.381 584.002 103.805 579.839 102.071L584.81 90.0593C590.217 92.292 595.183 95.5775 599.448 99.811ZM584.421 89.9009L579.45 101.912C576.087 100.562 572.445 99.7593 568.635 99.6136L569.059 86.6578C574.403 86.8499 579.584 87.9565 584.421 89.9009ZM567.376 86.6273C567.798 86.6273 568.219 86.6337 568.639 86.645L568.215 99.5979C567.936 99.5909 567.656 99.5872 567.376 99.5872C563.687 99.5872 560.142 100.206 556.838 101.341L552.489 89.097C557.213 87.4727 562.229 86.6273 567.376 86.6273ZM552.092 89.2346L556.441 101.479C552.33 102.952 548.604 105.23 545.457 108.121L536.515 98.6509C541.076 94.4415 546.365 91.2632 552.092 89.2346ZM535.303 99.811C535.602 99.515 535.904 99.224 536.209 98.9369L545.15 108.405C542.253 111.135 539.867 114.392 538.144 118.018L526.262 112.575C528.471 107.891 531.509 103.576 535.303 99.811ZM526.085 112.953L537.966 118.395C536.276 122.076 535.27 126.127 535.105 130.389L522.049 129.968C522.267 124.007 523.648 118.249 526.085 112.953ZM522.018 131.639C522.018 131.22 522.025 130.802 522.036 130.385L535.089 130.806C535.082 131.083 535.078 131.36 535.078 131.639C535.078 135.456 535.755 139.119 536.995 142.517L524.718 147.002C522.944 142.143 522.018 136.961 522.018 131.639ZM524.862 147.394L537.141 142.908C538.627 146.822 540.864 150.374 543.677 153.39L534.135 162.264C530.04 157.894 526.913 152.852 524.862 147.394ZM535.303 163.466C535.005 163.17 534.712 162.87 534.422 162.567L543.963 153.695C546.036 155.86 548.41 157.738 551.017 159.264L544.774 170.684C541.353 168.728 538.17 166.311 535.303 163.466ZM612.436 213.512H522.316L544.904 172.196C546.384 173.006 547.906 173.734 549.463 174.376L547.87 178.226C547.508 178.112 547.123 178.051 546.724 178.051C544.634 178.051 542.94 179.732 542.94 181.805C542.94 183.879 544.634 185.559 546.724 185.559C548.813 185.559 550.507 183.878 550.507 181.805C550.507 180.275 549.585 178.96 548.262 178.375L549.852 174.534C554.826 176.535 560.155 177.673 565.652 177.87L565.523 181.807C563.474 181.853 561.827 183.515 561.827 185.559C561.827 187.633 563.521 189.314 565.61 189.314C567.699 189.314 569.393 187.633 569.393 185.559C569.393 183.597 567.876 181.987 565.943 181.82L566.072 177.882C566.506 177.894 566.94 177.901 567.376 177.901C572.668 177.901 577.825 177.031 582.682 175.361L584.042 179.189C582.754 179.788 581.862 181.085 581.862 182.589C581.862 184.663 583.556 186.344 585.646 186.344C587.735 186.344 589.429 184.663 589.429 182.589C589.429 180.516 587.735 178.835 585.646 178.835C585.221 178.835 584.813 178.906 584.432 179.034L583.079 175.223C585.412 174.397 587.675 173.386 589.848 172.196L612.436 213.512ZM589.978 170.685L583.735 159.265C585.736 158.093 587.599 156.714 589.295 155.157L598.236 164.627C595.693 166.974 592.924 168.999 589.978 170.685ZM599.448 163.466C599.15 163.763 598.848 164.054 598.542 164.341L589.602 154.872C592.498 152.143 594.885 148.886 596.608 145.26L608.489 150.703C606.281 155.386 603.243 159.701 599.448 163.466ZM608.666 150.325L596.786 144.882C598.476 141.201 599.482 137.15 599.647 132.888L612.703 133.309C612.485 139.271 611.103 145.028 608.666 150.325Z" fill="#265E8F"/>
<path d="M679.923 161.208H631.307V231.896H679.923V161.208Z" fill="#265E8F"/>
<path d="M721.425 188.691H672.809V231.497H721.425V188.691Z" fill="#265E8F"/>
<path d="M511.546 182.405H484.274V218.327H511.546V182.405Z" fill="#265E8F"/>
<path d="M690.002 93.984H655.615V231.896H690.002V93.984Z" fill="#265E8F"/>
<path d="M746.622 231.896H701.267V151.365H735.653L746.622 231.896Z" fill="#265E8F"/>
<path d="M766.483 213.512H726.76V231.896H766.483V213.512Z" fill="#265E8F"/>
<path d="M682.295 65.172H681.109V102.649H682.295V65.172Z" fill="#265E8F"/>
<path d="M686.297 73.2141H685.111V110.692H686.297V73.2141Z" fill="#265E8F"/>
<path d="M678.663 78.3878H677.478V115.865H678.663V78.3878Z" fill="#265E8F"/>
<path d="M719.275 144.857H703.045V157.543H719.275V144.857Z" fill="#265E8F"/>
<path d="M717.496 140.334H704.824V147.465H717.496V140.334Z" fill="#265E8F"/>
<path d="M728.835 148.573H725.723V153.695H728.835V148.573Z" fill="#265E8F"/>
<path d="M734.383 143.899H729.937V153.695H734.383V143.899Z" fill="#265E8F"/>
<path d="M677.728 113.788C677.728 113.209 677.331 112.739 676.84 112.739C676.35 112.739 675.953 113.209 675.953 113.788C675.953 114.367 676.35 114.837 676.84 114.837C677.331 114.837 677.728 114.368 677.728 113.788Z" fill="#2E6CA3"/>
<path d="M774.469 241.319L768.961 204.758H757.696V174.42H759.089V171.675H753.62V159.857H752.953V171.675H749.173V161.994H748.506V171.675H725.723V174.42H727.279V235.977H701.266V208.403H686.452V140.647H687.807V137.323H684.849V133.068H681.443V131.468V126.602V122.381H677.335V114.838H676.84H676.346V122.381H674.131L672.792 126.602H663.828V133.068H640.363V137.323H637.404V140.647H638.759V184.732H619.126V228.047L597.341 218.468V176.426H600.856V173.337H594.673V164.953H568.194V173.337H559.545V164.953H555.098V173.337H550.652V164.953H545.76V173.337H535.533V176.426H537.09V234.699H527.158V234.087H525.36V217.481H527.158V216.149H525.36V199.543H527.158V198.211H525.36V181.605H527.158V180.273H525.36V163.667H527.158V162.335H525.36V145.729H527.158V144.397H525.36V127.212H528.44V125.875H530.007V122.232H500.759V118.18H501.711V117.009H485.787V118.18H486.738V122.232H479.489V125.875H481.057V127.212H484.136V144.397H482.339V145.729H484.136V162.335H482.339V163.667H484.136V180.273H482.339V181.605H484.136V198.211H482.339V199.543H484.136V216.149H482.339V217.481H484.136V234.087H482.339V235.42H484.136V248.989H474.154V196.552H433.986V234.699H427.464V115.865H422.638V118.924L413.735 121.085V119.098H408.91V122.256L400.007 124.418V122.139H395.182V125.589L386.278 127.75V125.871H381.453V128.921L372.55 131.083V129.463H367.725V246.16H360.937V183.946H335.795V222.203H310.02V189.579H306.845V178.865H308.729V177.789H300.388V174.42H299.499V177.789H296.831V160.496H296.164V177.789H292.689V178.865H294.734V189.579H277.723V214.466H261.162L252.512 246.16H235.159V142.678H212.182V138.971H213.487V137.67H196.084V138.971H197.453V142.678V148.64V219.512H186.619V192.735H190.47V190.31H163.209V174.133H158.008V170.809H146.401V174.133H136.955V231.896H105.969V189.055H79.8774V222.893H57.2348V244.543H40.9086V217.326H19.4381V240.531H0V280H19.4381H26.0083H36.7405H40.9086H57.2348H79.8774H87.4863H91.5601H105.969H136.955H146.401H158.008H163.209H183.546H186.619H197.453H215.622H224.572H235.159H277.723H287.552H304.146H310.02H336.235H343.279H367.725H370.137H372.55H381.453H386.278H395.182H399.215H400.007H408.91H413.735H421.389H422.638H425.051H427.464H433.986H467.187H471.929H474.154H484.136H501.711H517.799H525.36H537.09H566.218H597.019H597.341H619.126H631.307H638.759H643.467H679.923H686.452H694.258H701.266H727.279H746.621H750.581H757.696H800.976V241.319H774.469Z" fill="#2E6CA3"/>
<path opacity="0.5" d="M286.456 119.098H285.101V126.543H286.456V119.098Z" fill="#ABD96F"/>
<path opacity="0.5" d="M291.127 119.098H289.771V126.543H291.127V119.098Z" fill="#ABD96F"/>
<path opacity="0.5" d="M295.798 119.098H294.442V126.543H295.798V119.098Z" fill="#ABD96F"/>
<path opacity="0.5" d="M300.469 119.098H299.113V126.543H300.469V119.098Z" fill="#ABD96F"/>
<path opacity="0.5" d="M305.14 119.098H303.784V126.543H305.14V119.098Z" fill="#ABD96F"/>
<path opacity="0.5" d="M309.811 119.098H308.455V126.543H309.811V119.098Z" fill="#ABD96F"/>
<path opacity="0.5" d="M314.482 119.098H313.126V126.543H314.482V119.098Z" fill="#ABD96F"/>
<path opacity="0.5" d="M319.152 119.098H317.797V126.543H319.152V119.098Z" fill="#ABD96F"/>
<path opacity="0.5" d="M323.823 119.098H322.468V126.543H323.823V119.098Z" fill="#ABD96F"/>
<path opacity="0.5" d="M328.494 119.098H327.139V126.543H328.494V119.098Z" fill="#ABD96F"/>
<path opacity="0.5" d="M333.165 119.098H331.81V126.543H333.165V119.098Z" fill="#ABD96F"/>
<path opacity="0.5" d="M286.456 129.463H285.101V136.908H286.456V129.463Z" fill="#ABD96F"/>
<path opacity="0.5" d="M291.127 129.463H289.771V136.908H291.127V129.463Z" fill="#ABD96F"/>
<path opacity="0.5" d="M295.798 129.463H294.442V136.908H295.798V129.463Z" fill="#ABD96F"/>
<path opacity="0.5" d="M300.469 129.463H299.113V136.908H300.469V129.463Z" fill="#ABD96F"/>
<path opacity="0.5" d="M305.14 129.463H303.784V136.908H305.14V129.463Z" fill="#ABD96F"/>
<path opacity="0.5" d="M309.811 129.463H308.455V136.908H309.811V129.463Z" fill="#ABD96F"/>
<path opacity="0.5" d="M314.482 129.463H313.126V136.908H314.482V129.463Z" fill="#ABD96F"/>
<path opacity="0.5" d="M319.152 129.463H317.797V136.908H319.152V129.463Z" fill="#ABD96F"/>
<path opacity="0.5" d="M323.823 129.463H322.468V136.908H323.823V129.463Z" fill="#ABD96F"/>
<path opacity="0.5" d="M328.494 129.463H327.139V136.908H328.494V129.463Z" fill="#ABD96F"/>
<path opacity="0.5" d="M333.165 129.463H331.81V136.908H333.165V129.463Z" fill="#ABD96F"/>
<path opacity="0.5" d="M286.456 139.828H285.101V147.273H286.456V139.828Z" fill="#ABD96F"/>
<path opacity="0.5" d="M291.127 139.828H289.771V147.273H291.127V139.828Z" fill="#ABD96F"/>
<path opacity="0.5" d="M295.798 139.828H294.442V147.273H295.798V139.828Z" fill="#ABD96F"/>
<path opacity="0.5" d="M300.469 139.828H299.113V147.273H300.469V139.828Z" fill="#ABD96F"/>
<path opacity="0.5" d="M305.14 139.828H303.784V147.273H305.14V139.828Z" fill="#ABD96F"/>
<path opacity="0.5" d="M309.811 139.828H308.455V147.273H309.811V139.828Z" fill="#ABD96F"/>
<path opacity="0.5" d="M314.482 139.828H313.126V147.273H314.482V139.828Z" fill="#ABD96F"/>
<path opacity="0.5" d="M319.152 139.828H317.797V147.273H319.152V139.828Z" fill="#ABD96F"/>
<path opacity="0.5" d="M323.823 139.828H322.468V147.273H323.823V139.828Z" fill="#ABD96F"/>
<path opacity="0.5" d="M328.494 139.828H327.139V147.273H328.494V139.828Z" fill="#ABD96F"/>
<path opacity="0.5" d="M333.165 139.828H331.81V147.273H333.165V139.828Z" fill="#ABD96F"/>
<path opacity="0.5" d="M300.469 150.193H299.113V157.638H300.469V150.193Z" fill="#ABD96F"/>
<path opacity="0.5" d="M305.14 150.193H303.784V157.638H305.14V150.193Z" fill="#ABD96F"/>
<path opacity="0.5" d="M309.811 150.193H308.455V157.638H309.811V150.193Z" fill="#ABD96F"/>
<path opacity="0.5" d="M314.482 150.193H313.126V157.638H314.482V150.193Z" fill="#ABD96F"/>
<path opacity="0.5" d="M319.152 150.193H317.797V157.638H319.152V150.193Z" fill="#ABD96F"/>
<path opacity="0.5" d="M323.823 150.193H322.468V157.638H323.823V150.193Z" fill="#ABD96F"/>
<path opacity="0.5" d="M328.494 150.193H327.139V157.638H328.494V150.193Z" fill="#ABD96F"/>
<path opacity="0.5" d="M333.165 150.193H331.809V157.638H333.165V150.193Z" fill="#ABD96F"/>
<path opacity="0.5" d="M305.14 161.132H303.784V168.577H305.14V161.132Z" fill="#ABD96F"/>
<path opacity="0.5" d="M309.811 161.132H308.455V168.577H309.811V161.132Z" fill="#ABD96F"/>
<path opacity="0.5" d="M314.482 161.132H313.126V168.577H314.482V161.132Z" fill="#ABD96F"/>
<path opacity="0.5" d="M319.152 161.132H317.797V168.577H319.152V161.132Z" fill="#ABD96F"/>
<path opacity="0.5" d="M323.823 161.132H322.468V168.577H323.823V161.132Z" fill="#ABD96F"/>
<path opacity="0.5" d="M328.494 161.132H327.139V168.577H328.494V161.132Z" fill="#ABD96F"/>
<path opacity="0.5" d="M333.165 161.132H331.809V168.577H333.165V161.132Z" fill="#ABD96F"/>
<path d="M378.603 137.577H375.401V145.636H378.603V137.577Z" fill="#ABD96F"/>
<path d="M378.603 152.992H375.401V161.051H378.603V152.992Z" fill="#ABD96F"/>
<path d="M378.603 168.408H375.401V176.467H378.603V168.408Z" fill="#ABD96F"/>
<path d="M378.603 183.823H375.401V191.883H378.603V183.823Z" fill="#ABD96F"/>
<path d="M378.603 198.357H375.401V206.416H378.603V198.357Z" fill="#ABD96F"/>
<path d="M378.603 213.772H375.401V221.832H378.603V213.772Z" fill="#ABD96F"/>
<path d="M392.331 137.577H389.129V145.636H392.331V137.577Z" fill="#ABD96F"/>
<path d="M392.331 152.992H389.129V161.051H392.331V152.992Z" fill="#ABD96F"/>
<path d="M392.331 168.408H389.129V176.467H392.331V168.408Z" fill="#ABD96F"/>
<path d="M392.331 183.823H389.129V191.883H392.331V183.823Z" fill="#ABD96F"/>
<path d="M392.331 198.357H389.129V206.416H392.331V198.357Z" fill="#ABD96F"/>
<path d="M392.331 213.772H389.129V221.832H392.331V213.772Z" fill="#ABD96F"/>
<path d="M406.06 137.577H402.857V145.636H406.06V137.577Z" fill="#ABD96F"/>
<path d="M406.06 152.992H402.857V161.051H406.06V152.992Z" fill="#ABD96F"/>
<path d="M406.06 168.408H402.857V176.467H406.06V168.408Z" fill="#ABD96F"/>
<path d="M406.06 183.823H402.857V191.883H406.06V183.823Z" fill="#ABD96F"/>
<path d="M406.06 198.357H402.857V206.416H406.06V198.357Z" fill="#ABD96F"/>
<path d="M406.06 213.772H402.857V221.832H406.06V213.772Z" fill="#ABD96F"/>
<path d="M419.788 137.577H416.586V145.636H419.788V137.577Z" fill="#ABD96F"/>
<path d="M419.788 152.992H416.586V161.051H419.788V152.992Z" fill="#ABD96F"/>
<path d="M419.788 168.408H416.586V176.467H419.788V168.408Z" fill="#ABD96F"/>
<path d="M419.788 183.823H416.586V191.883H419.788V183.823Z" fill="#ABD96F"/>
<path d="M419.788 198.357H416.586V206.416H419.788V198.357Z" fill="#ABD96F"/>
<path d="M419.788 213.772H416.586V221.832H419.788V213.772Z" fill="#ABD96F"/>
<path opacity="0.5" d="M326.488 25.1863H323.823V32.2392H326.488V25.1863Z" fill="#ABD96F"/>
<path opacity="0.5" d="M333.061 25.1863H330.397V32.2392H333.061V25.1863Z" fill="#ABD96F"/>
<path opacity="0.5" d="M339.635 25.1863H336.971V32.2392H339.635V25.1863Z" fill="#ABD96F"/>
<path opacity="0.5" d="M346.209 25.1863H343.545V32.2392H346.209V25.1863Z" fill="#ABD96F"/>
<path opacity="0.5" d="M326.488 36.9332H323.823V43.9862H326.488V36.9332Z" fill="#ABD96F"/>
<path opacity="0.5" d="M333.061 36.9332H330.397V43.9862H333.061V36.9332Z" fill="#ABD96F"/>
<path opacity="0.5" d="M339.635 36.9332H336.971V43.9862H339.635V36.9332Z" fill="#ABD96F"/>
<path opacity="0.5" d="M346.209 36.9332H343.545V43.9862H346.209V36.9332Z" fill="#ABD96F"/>
<path opacity="0.5" d="M326.488 48.6802H323.823V55.7331H326.488V48.6802Z" fill="#ABD96F"/>
<path opacity="0.5" d="M333.061 48.6802H330.397V55.7331H333.061V48.6802Z" fill="#ABD96F"/>
<path opacity="0.5" d="M353.666 25.1863H351.002V32.2392H353.666V25.1863Z" fill="#ABD96F"/>
<path opacity="0.4" d="M148.095 96.6415H146.401V103.107H148.095V96.6415Z" fill="#ABD96F"/>
<path opacity="0.4" d="M154.074 96.6415H152.38V103.107H154.074V96.6415Z" fill="#ABD96F"/>
<path opacity="0.4" d="M161.067 96.6415H159.373V103.107H161.067V96.6415Z" fill="#ABD96F"/>
<path opacity="0.4" d="M167.046 96.6415H165.351V103.107H167.046V96.6415Z" fill="#ABD96F"/>
<path opacity="0.4" d="M134.813 96.6415H133.119V103.107H134.813V96.6415Z" fill="#ABD96F"/>
<path opacity="0.4" d="M140.792 96.6415H139.097V103.107H140.792V96.6415Z" fill="#ABD96F"/>
<path opacity="0.4" d="M148.095 107.869H146.401V114.334H148.095V107.869Z" fill="#ABD96F"/>
<path opacity="0.4" d="M154.074 107.869H152.38V114.334H154.074V107.869Z" fill="#ABD96F"/>
<path opacity="0.4" d="M161.067 107.869H159.373V114.334H161.067V107.869Z" fill="#ABD96F"/>
<path opacity="0.4" d="M167.046 107.869H165.351V114.334H167.046V107.869Z" fill="#ABD96F"/>
<path opacity="0.4" d="M134.813 107.869H133.119V114.334H134.813V107.869Z" fill="#ABD96F"/>
<path opacity="0.4" d="M140.792 107.869H139.097V114.334H140.792V107.869Z" fill="#ABD96F"/>
<path opacity="0.4" d="M148.095 119.096H146.401V125.561H148.095V119.096Z" fill="#ABD96F"/>
<path opacity="0.4" d="M154.074 119.096H152.38V125.561H154.074V119.096Z" fill="#ABD96F"/>
<path opacity="0.4" d="M161.067 119.096H159.373V125.561H161.067V119.096Z" fill="#ABD96F"/>
<path opacity="0.4" d="M167.046 119.096H165.351V125.561H167.046V119.096Z" fill="#ABD96F"/>
<path opacity="0.4" d="M134.813 119.096H133.119V125.561H134.813V119.096Z" fill="#ABD96F"/>
<path opacity="0.4" d="M140.792 119.096H139.097V125.561H140.792V119.096Z" fill="#ABD96F"/>
<path opacity="0.5" d="M465.209 146.192H462.584V156.219H465.209V146.192Z" fill="#ABD96F"/>
<path opacity="0.5" d="M473.242 146.192H470.617V156.219H473.242V146.192Z" fill="#ABD96F"/>
<path opacity="0.5" d="M480.802 146.192H478.177V156.219H480.802V146.192Z" fill="#ABD96F"/>
<path opacity="0.33" d="M645.46 148.277H643.467V153.915H645.46V148.277Z" fill="#ABD96F"/>
<path opacity="0.33" d="M651.706 148.277H649.714V153.915H651.706V148.277Z" fill="#ABD96F"/>
<path opacity="0.33" d="M645.46 148.277H643.467V153.915H645.46V148.277Z" fill="#ABD96F"/>
<path opacity="0.33" d="M651.706 148.277H649.714V153.915H651.706V148.277Z" fill="#ABD96F"/>
<path opacity="0.33" d="M657.608 148.277H655.615V153.915H657.608V148.277Z" fill="#ABD96F"/>
<path opacity="0.33" d="M663.854 148.277H661.862V153.915H663.854V148.277Z" fill="#ABD96F"/>
<path opacity="0.33" d="M645.46 158.389H643.467V164.027H645.46V158.389Z" fill="#ABD96F"/>
<path opacity="0.33" d="M651.706 158.389H649.714V164.027H651.706V158.389Z" fill="#ABD96F"/>
<path opacity="0.33" d="M645.46 158.389H643.467V164.027H645.46V158.389Z" fill="#ABD96F"/>
<path opacity="0.33" d="M651.706 158.389H649.714V164.027H651.706V158.389Z" fill="#ABD96F"/>
<path opacity="0.33" d="M657.608 158.389H655.615V164.027H657.608V158.389Z" fill="#ABD96F"/>
<path opacity="0.33" d="M663.854 158.389H661.862V164.027H663.854V158.389Z" fill="#ABD96F"/>
<path opacity="0.33" d="M645.46 169.151H643.467V174.789H645.46V169.151Z" fill="#ABD96F"/>
<path opacity="0.33" d="M651.706 169.151H649.714V174.789H651.706V169.151Z" fill="#ABD96F"/>
<path opacity="0.33" d="M645.46 169.151H643.467V174.789H645.46V169.151Z" fill="#ABD96F"/>
<path opacity="0.33" d="M651.706 169.151H649.714V174.789H651.706V169.151Z" fill="#ABD96F"/>
<path opacity="0.33" d="M657.608 169.151H655.615V174.789H657.608V169.151Z" fill="#ABD96F"/>
<path opacity="0.33" d="M663.854 169.151H661.862V174.789H663.854V169.151Z" fill="#ABD96F"/>
<path opacity="0.33" d="M670.682 148.277H668.689V153.915H670.682V148.277Z" fill="#ABD96F"/>
<path opacity="0.33" d="M670.682 158.389H668.689V164.027H670.682V158.389Z" fill="#ABD96F"/>
<path opacity="0.33" d="M676.928 148.277H674.935V153.915H676.928V148.277Z" fill="#ABD96F"/>
<path opacity="0.33" d="M489.988 131.543H487.847V140.334H489.988V131.543Z" fill="#ABD96F"/>
<path opacity="0.33" d="M500.64 131.543H498.498V140.334H500.64V131.543Z" fill="#ABD96F"/>
<path opacity="0.33" d="M511.291 131.543H509.149V140.334H511.291V131.543Z" fill="#ABD96F"/>
<path opacity="0.33" d="M521.942 131.543H519.801V140.334H521.942V131.543Z" fill="#ABD96F"/>
<path opacity="0.33" d="M489.988 149.637H487.847V158.428H489.988V149.637Z" fill="#ABD96F"/>
<path opacity="0.33" d="M500.64 149.637H498.498V158.428H500.64V149.637Z" fill="#ABD96F"/>
<path opacity="0.33" d="M511.291 149.637H509.149V158.428H511.291V149.637Z" fill="#ABD96F"/>
<path opacity="0.33" d="M521.942 149.637H519.801V158.428H521.942V149.637Z" fill="#ABD96F"/>
<path opacity="0.33" d="M489.988 168.181H487.847V176.972H489.988V168.181Z" fill="#ABD96F"/>
<path opacity="0.33" d="M500.64 168.181H498.498V176.972H500.64V168.181Z" fill="#ABD96F"/>
<path opacity="0.33" d="M511.291 168.181H509.149V176.972H511.291V168.181Z" fill="#ABD96F"/>
<path opacity="0.33" d="M521.942 168.181H519.801V176.972H521.942V168.181Z" fill="#ABD96F"/>
<path opacity="0.33" d="M489.988 186.725H487.847V195.516H489.988V186.725Z" fill="#ABD96F"/>
<path opacity="0.33" d="M500.64 186.725H498.498V195.516H500.64V186.725Z" fill="#ABD96F"/>
<path opacity="0.33" d="M511.291 186.725H509.149V195.516H511.291V186.725Z" fill="#ABD96F"/>
<path opacity="0.33" d="M521.942 186.725H519.801V195.516H521.942V186.725Z" fill="#ABD96F"/>
<path opacity="0.33" d="M489.988 203.57H487.847V212.361H489.988V203.57Z" fill="#ABD96F"/>
<path opacity="0.33" d="M500.64 203.57H498.498V212.361H500.64V203.57Z" fill="#ABD96F"/>
<path opacity="0.33" d="M511.291 203.57H509.149V212.361H511.291V203.57Z" fill="#ABD96F"/>
<path opacity="0.33" d="M489.988 222.358H487.847V231.15H489.988V222.358Z" fill="#ABD96F"/>
<path opacity="0.33" d="M500.64 222.358H498.498V231.15H500.64V222.358Z" fill="#ABD96F"/>
<path opacity="0.33" d="M511.291 222.358H509.149V231.15H511.291V222.358Z" fill="#ABD96F"/>
<path opacity="0.33" d="M521.942 203.57H519.801V212.361H521.942V203.57Z" fill="#ABD96F"/>
<path opacity="0.33" d="M732.16 178.021H729.972V183.068H732.16V178.021Z" fill="#ABD96F"/>
<path opacity="0.33" d="M732.16 186.168H729.972V191.214H732.16V186.168Z" fill="#ABD96F"/>
<path opacity="0.33" d="M737.773 178.021H735.585V183.068H737.773V178.021Z" fill="#ABD96F"/>
</g>
<g opacity="0.75">
<rect x="139.862" y="178" width="2" height="2" fill="#ABD96F"/>
<rect x="143.862" y="178" width="2" height="2" fill="#ABD96F"/>
<rect x="147.862" y="178" width="2" height="2" fill="#ABD96F"/>
<rect x="139.862" y="183" width="2" height="2" fill="#ABD96F"/>
<rect x="143.862" y="183" width="2" height="2" fill="#ABD96F"/>
<rect x="139.862" y="188" width="2" height="2" fill="#ABD96F"/>
</g>
<g opacity="0.75">
<rect x="279.862" y="193" width="2" height="2" fill="#ABD96F"/>
<rect x="283.862" y="193" width="2" height="2" fill="#ABD96F"/>
<rect x="287.862" y="193" width="2" height="2" fill="#ABD96F"/>
<rect x="291.862" y="193" width="2" height="2" fill="#ABD96F"/>
<rect x="295.862" y="193" width="2" height="2" fill="#ABD96F"/>
<rect x="299.862" y="193" width="2" height="2" fill="#ABD96F"/>
<rect x="303.862" y="193" width="2" height="2" fill="#ABD96F"/>
<rect x="279.862" y="198" width="2" height="2" fill="#ABD96F"/>
<rect x="283.862" y="198" width="2" height="2" fill="#ABD96F"/>
<rect x="287.862" y="198" width="2" height="2" fill="#ABD96F"/>
<rect x="291.862" y="198" width="2" height="2" fill="#ABD96F"/>
<rect x="295.862" y="198" width="2" height="2" fill="#ABD96F"/>
<rect x="299.862" y="198" width="2" height="2" fill="#ABD96F"/>
<rect x="303.862" y="198" width="2" height="2" fill="#ABD96F"/>
<rect x="283.862" y="203" width="2" height="2" fill="#ABD96F"/>
<rect x="287.862" y="203" width="2" height="2" fill="#ABD96F"/>
<rect x="291.862" y="203" width="2" height="2" fill="#ABD96F"/>
<rect x="295.862" y="203" width="2" height="2" fill="#ABD96F"/>
<rect x="299.862" y="203" width="2" height="2" fill="#ABD96F"/>
<rect x="303.862" y="203" width="2" height="2" fill="#ABD96F"/>
<rect x="291.862" y="208" width="2" height="2" fill="#ABD96F"/>
<rect x="295.862" y="208" width="2" height="2" fill="#ABD96F"/>
<rect x="299.862" y="208" width="2" height="2" fill="#ABD96F"/>
<rect x="303.862" y="208" width="2" height="2" fill="#ABD96F"/>
<rect x="299.862" y="213" width="2" height="2" fill="#ABD96F"/>
<rect x="303.862" y="213" width="2" height="2" fill="#ABD96F"/>
</g>
<g opacity="0.8" filter="url(#filter0_d_1218_4995)">
<path d="M204.484 156.396H187.47V170.177H204.484V156.396Z" fill="#ABD96F"/>
<path d="M204.484 156.396H187.47V170.177H204.484V156.396Z" fill="url(#paint0_linear_1218_4995)"/>
<path d="M198.3 152.993L187.417 156.43H204.444L213.192 152.993H198.3Z" fill="url(#paint1_linear_1218_4995)"/>
<path d="M198.3 152.993L187.417 156.43H204.444L213.192 152.993H198.3Z" fill="url(#paint2_linear_1218_4995)" fill-opacity="0.45"/>
<path d="M213.193 165.595L213.417 152.823L204.484 156.396V170.177L213.193 165.595Z" fill="url(#paint3_linear_1218_4995)"/>
<path d="M213.193 165.595L213.417 152.823L204.484 156.396V170.177L213.193 165.595Z" fill="url(#paint4_linear_1218_4995)" fill-opacity="0.2"/>
<path d="M197.261 161.294H195.826C196.02 161.488 196.143 161.7 196.192 161.929H197.471V162.041L197.261 162.422H196.192C196.093 162.966 195.647 163.372 194.854 163.641L196.731 165.539L196.245 165.905L194.653 164.097C194.543 163.972 194.461 163.855 194.406 163.745C194.356 163.631 194.326 163.534 194.316 163.454L194.354 163.424C194.473 163.399 194.623 163.344 194.802 163.26C194.982 163.17 195.148 163.055 195.303 162.916C195.462 162.776 195.562 162.617 195.602 162.437H194.137V162.333L194.339 161.944H195.557C195.472 161.735 195.31 161.523 195.071 161.309H194.144V161.204L194.346 160.823H197.478V160.928L197.261 161.294Z" fill="white"/>
</g>
<g opacity="0.8" filter="url(#filter1_d_1218_4995)">
<path d="M227.858 194.181H213.462V205.842H227.858V194.181Z" fill="#ABD96F"/>
<path d="M227.858 194.181H213.462V205.842H227.858V194.181Z" fill="url(#paint5_linear_1218_4995)"/>
<path d="M222.625 191.302L213.417 194.21H227.825L235.227 191.302H222.625Z" fill="url(#paint6_linear_1218_4995)"/>
<path d="M222.625 191.302L213.417 194.21H227.825L235.227 191.302H222.625Z" fill="url(#paint7_linear_1218_4995)" fill-opacity="0.45"/>
<path d="M235.227 201.965L235.416 191.158L227.858 194.181V205.842L235.227 201.965Z" fill="url(#paint8_linear_1218_4995)"/>
<path d="M235.227 201.965L235.416 191.158L227.858 194.181V205.842L235.227 201.965Z" fill="url(#paint9_linear_1218_4995)" fill-opacity="0.2"/>
<path d="M221.747 198.326H220.532C220.697 198.49 220.8 198.669 220.842 198.863H221.924V198.958L221.747 199.281H220.842C220.758 199.74 220.381 200.084 219.71 200.311L221.298 201.918L220.887 202.228L219.539 200.697C219.447 200.592 219.377 200.493 219.331 200.4C219.289 200.303 219.263 200.221 219.255 200.153L219.286 200.128C219.388 200.107 219.514 200.061 219.666 199.989C219.818 199.913 219.959 199.816 220.09 199.698C220.225 199.58 220.309 199.445 220.343 199.293H219.103V199.205L219.274 198.876H220.305C220.233 198.699 220.096 198.52 219.894 198.338H219.109V198.25L219.28 197.927H221.93V198.016L221.747 198.326Z" fill="white"/>
</g>
<g opacity="0.8" filter="url(#filter2_d_1218_4995)">
<path d="M141.654 107.635H82.1052V155.869H141.654V107.635Z" fill="#ABD96F"/>
<path d="M141.654 107.635H82.1052V155.869H141.654V107.635Z" fill="url(#paint10_linear_1218_4995)"/>
<path d="M120.008 95.7256L81.9165 107.754H141.514L172.132 95.7256H120.008Z" fill="url(#paint11_linear_1218_4995)"/>
<path d="M120.008 95.7256L81.9165 107.754H141.514L172.132 95.7256H120.008Z" fill="url(#paint12_linear_1218_4995)" fill-opacity="0.45"/>
<path d="M172.132 139.831L172.917 95.1302L141.654 107.635V155.87L172.132 139.831Z" fill="url(#paint13_linear_1218_4995)"/>
<path d="M172.132 139.831L172.917 95.1302L141.654 107.635V155.87L172.132 139.831Z" fill="url(#paint14_linear_1218_4995)" fill-opacity="0.2"/>
<path d="M116.373 124.778H111.35C112.03 125.459 112.458 126.2 112.632 127.002H117.105V127.394L116.373 128.729H112.632C112.283 130.629 110.722 132.051 107.949 132.993L114.516 139.637L112.815 140.919L107.243 134.588C106.859 134.152 106.572 133.743 106.38 133.359C106.205 132.958 106.101 132.618 106.066 132.339L106.197 132.234C106.615 132.147 107.138 131.955 107.766 131.658C108.394 131.345 108.978 130.943 109.519 130.455C110.077 129.967 110.426 129.409 110.565 128.781H105.438V128.415L106.144 127.054H110.408C110.112 126.322 109.545 125.581 108.708 124.831H105.464V124.464L106.17 123.13H117.132V123.496L116.373 124.778Z" fill="white"/>
</g>
<g opacity="0.8" filter="url(#filter3_d_1218_4995)">
<path d="M380.613 142.47H350.512V166.852H380.613V142.47Z" fill="#ABD96F"/>
<path d="M380.613 142.47H350.512V166.852H380.613V142.47Z" fill="url(#paint15_linear_1218_4995)"/>
<path d="M369.671 136.449L350.417 142.53H380.543L396.02 136.449H369.671Z" fill="url(#paint16_linear_1218_4995)"/>
<path d="M369.671 136.449L350.417 142.53H380.543L396.02 136.449H369.671Z" fill="url(#paint17_linear_1218_4995)" fill-opacity="0.45"/>
<path d="M396.02 158.744L396.417 136.148L380.613 142.469V166.852L396.02 158.744Z" fill="url(#paint18_linear_1218_4995)"/>
<path d="M396.02 158.744L396.417 136.148L380.613 142.469V166.852L396.02 158.744Z" fill="url(#paint19_linear_1218_4995)" fill-opacity="0.2"/>
<path d="M367.834 151.135H365.295C365.639 151.479 365.855 151.854 365.943 152.259H368.204V152.457L367.834 153.132H365.943C365.767 154.093 364.978 154.811 363.576 155.287L366.895 158.646L366.036 159.294L363.219 156.094C363.025 155.874 362.879 155.666 362.782 155.473C362.694 155.27 362.641 155.098 362.624 154.957L362.69 154.904C362.901 154.86 363.166 154.763 363.483 154.613C363.801 154.454 364.096 154.252 364.369 154.005C364.651 153.758 364.828 153.476 364.898 153.158H362.306V152.973L362.663 152.286H364.819C364.669 151.915 364.383 151.541 363.959 151.162H362.32V150.976L362.677 150.302H368.217V150.487L367.834 151.135Z" fill="white"/>
</g>
<g opacity="0.8" filter="url(#filter4_d_1218_4995)">
<path d="M490.362 162.04H465.495V182.182H490.362V162.04Z" fill="#ABD96F"/>
<path d="M490.362 162.04H465.495V182.182H490.362V162.04Z" fill="url(#paint20_linear_1218_4995)"/>
<path d="M481.323 157.067L465.417 162.09H490.303L503.089 157.067H481.323Z" fill="url(#paint21_linear_1218_4995)"/>
<path d="M481.323 157.067L465.417 162.09H490.303L503.089 157.067H481.323Z" fill="url(#paint22_linear_1218_4995)" fill-opacity="0.45"/>
<path d="M503.089 175.484L503.416 156.818L490.362 162.04V182.182L503.089 175.484Z" fill="url(#paint23_linear_1218_4995)"/>
<path d="M503.089 175.484L503.416 156.818L490.362 162.04V182.182L503.089 175.484Z" fill="url(#paint24_linear_1218_4995)" fill-opacity="0.2"/>
<path d="M479.805 169.199H477.708C477.992 169.483 478.17 169.792 478.243 170.127H480.111V170.291L479.805 170.848H478.243C478.097 171.642 477.445 172.235 476.287 172.629L479.029 175.403L478.319 175.939L475.993 173.295C475.832 173.113 475.712 172.942 475.632 172.782C475.559 172.614 475.516 172.472 475.501 172.356L475.556 172.312C475.73 172.276 475.949 172.195 476.211 172.072C476.473 171.941 476.717 171.773 476.943 171.569C477.176 171.365 477.322 171.132 477.38 170.87H475.239V170.717L475.534 170.149H477.314C477.191 169.843 476.954 169.534 476.604 169.22H475.25V169.068L475.545 168.51H480.122V168.663L479.805 169.199Z" fill="white"/>
</g>
<g opacity="0.8" filter="url(#filter5_d_1218_4995)">
<path d="M413.736 194.825H391.487V212.847H413.736V194.825Z" fill="#ABD96F"/>
<path d="M413.736 194.825H391.487V212.847H413.736V194.825Z" fill="url(#paint25_linear_1218_4995)"/>
<path d="M405.648 190.375L391.417 194.87H413.684L425.124 190.375H405.648Z" fill="url(#paint26_linear_1218_4995)"/>
<path d="M405.648 190.375L391.417 194.87H413.684L425.124 190.375H405.648Z" fill="url(#paint27_linear_1218_4995)" fill-opacity="0.45"/>
<path d="M425.124 206.855L425.417 190.153L413.736 194.825V212.847L425.124 206.855Z" fill="url(#paint28_linear_1218_4995)"/>
<path d="M425.124 206.855L425.417 190.153L413.736 194.825V212.847L425.124 206.855Z" fill="url(#paint29_linear_1218_4995)" fill-opacity="0.2"/>
<path d="M404.29 201.23H402.414C402.668 201.485 402.828 201.761 402.893 202.061H404.564V202.208L404.29 202.706H402.893C402.762 203.417 402.179 203.948 401.143 204.299L403.596 206.782L402.961 207.261L400.879 204.896C400.736 204.733 400.628 204.58 400.557 204.436C400.492 204.286 400.452 204.159 400.439 204.055L400.488 204.016C400.645 203.983 400.84 203.912 401.075 203.801C401.309 203.684 401.528 203.534 401.73 203.351C401.938 203.169 402.068 202.96 402.121 202.726H400.205V202.589L400.469 202.081H402.062C401.951 201.807 401.739 201.53 401.427 201.25H400.215V201.113L400.479 200.615H404.574V200.751L404.29 201.23Z" fill="white"/>
</g>
<defs>
<filter id="filter0_d_1218_4995" x="175.417" y="148.823" width="42.0002" height="33.3541" filterUnits="userSpaceOnUse" color-interpolation-filters="sRGB">
<feFlood flood-opacity="0" result="BackgroundImageFix"/>
<feColorMatrix in="SourceAlpha" type="matrix" values="0 0 0 0 0 0 0 0 0 0 0 0 0 0 0 0 0 0 127 0" result="hardAlpha"/>
<feOffset dx="-4" dy="4"/>
<feGaussianBlur stdDeviation="4"/>
<feComposite in2="hardAlpha" operator="out"/>
<feColorMatrix type="matrix" values="0 0 0 0 0 0 0 0 0 0 0 0 0 0 0 0 0 0 0.18 0"/>
<feBlend mode="normal" in2="BackgroundImageFix" result="effect1_dropShadow_1218_4995"/>
<feBlend mode="normal" in="SourceGraphic" in2="effect1_dropShadow_1218_4995" result="shape"/>
</filter>
<filter id="filter1_d_1218_4995" x="203.263" y="187.773" width="35.5385" height="28.2228" filterUnits="userSpaceOnUse" color-interpolation-filters="sRGB">
<feFlood flood-opacity="0" result="BackgroundImageFix"/>
<feColorMatrix in="SourceAlpha" type="matrix" values="0 0 0 0 0 0 0 0 0 0 0 0 0 0 0 0 0 0 127 0" result="hardAlpha"/>
<feOffset dx="-3.38462" dy="3.38462"/>
<feGaussianBlur stdDeviation="3.38462"/>
<feComposite in2="hardAlpha" operator="out"/>
<feColorMatrix type="matrix" values="0 0 0 0 0 0 0 0 0 0 0 0 0 0 0 0 0 0 0.18 0"/>
<feBlend mode="normal" in2="BackgroundImageFix" result="effect1_dropShadow_1218_4995"/>
<feBlend mode="normal" in="SourceGraphic" in2="effect1_dropShadow_1218_4995" result="shape"/>
</filter>
<filter id="filter2_d_1218_4995" x="39.9165" y="81.1303" width="147" height="116.739" filterUnits="userSpaceOnUse" color-interpolation-filters="sRGB">
<feFlood flood-opacity="0" result="BackgroundImageFix"/>
<feColorMatrix in="SourceAlpha" type="matrix" values="0 0 0 0 0 0 0 0 0 0 0 0 0 0 0 0 0 0 127 0" result="hardAlpha"/>
<feOffset dx="-14" dy="14"/>
<feGaussianBlur stdDeviation="14"/>
<feComposite in2="hardAlpha" operator="out"/>
<feColorMatrix type="matrix" values="0 0 0 0 0 0 0 0 0 0 0 0 0 0 0 0 0 0 0.18 0"/>
<feBlend mode="normal" in2="BackgroundImageFix" result="effect1_dropShadow_1218_4995"/>
<feBlend mode="normal" in="SourceGraphic" in2="effect1_dropShadow_1218_4995" result="shape"/>
</filter>
<filter id="filter3_d_1218_4995" x="329.186" y="129.071" width="74.3077" height="59.0112" filterUnits="userSpaceOnUse" color-interpolation-filters="sRGB">
<feFlood flood-opacity="0" result="BackgroundImageFix"/>
<feColorMatrix in="SourceAlpha" type="matrix" values="0 0 0 0 0 0 0 0 0 0 0 0 0 0 0 0 0 0 127 0" result="hardAlpha"/>
<feOffset dx="-7.07692" dy="7.07692"/>
<feGaussianBlur stdDeviation="7.07692"/>
<feComposite in2="hardAlpha" operator="out"/>
<feColorMatrix type="matrix" values="0 0 0 0 0 0 0 0 0 0 0 0 0 0 0 0 0 0 0.18 0"/>
<feBlend mode="normal" in2="BackgroundImageFix" result="effect1_dropShadow_1218_4995"/>
<feBlend mode="normal" in="SourceGraphic" in2="effect1_dropShadow_1218_4995" result="shape"/>
</filter>
<filter id="filter4_d_1218_4995" x="447.878" y="150.972" width="61.3846" height="48.7484" filterUnits="userSpaceOnUse" color-interpolation-filters="sRGB">
<feFlood flood-opacity="0" result="BackgroundImageFix"/>
<feColorMatrix in="SourceAlpha" type="matrix" values="0 0 0 0 0 0 0 0 0 0 0 0 0 0 0 0 0 0 127 0" result="hardAlpha"/>
<feOffset dx="-5.84615" dy="5.84615"/>
<feGaussianBlur stdDeviation="5.84615"/>
<feComposite in2="hardAlpha" operator="out"/>
<feColorMatrix type="matrix" values="0 0 0 0 0 0 0 0 0 0 0 0 0 0 0 0 0 0 0.18 0"/>
<feBlend mode="normal" in2="BackgroundImageFix" result="effect1_dropShadow_1218_4995"/>
<feBlend mode="normal" in="SourceGraphic" in2="effect1_dropShadow_1218_4995" result="shape"/>
</filter>
<filter id="filter5_d_1218_4995" x="375.724" y="184.922" width="54.9231" height="43.6169" filterUnits="userSpaceOnUse" color-interpolation-filters="sRGB">
<feFlood flood-opacity="0" result="BackgroundImageFix"/>
<feColorMatrix in="SourceAlpha" type="matrix" values="0 0 0 0 0 0 0 0 0 0 0 0 0 0 0 0 0 0 127 0" result="hardAlpha"/>
<feOffset dx="-5.23077" dy="5.23077"/>
<feGaussianBlur stdDeviation="5.23077"/>
<feComposite in2="hardAlpha" operator="out"/>
<feColorMatrix type="matrix" values="0 0 0 0 0 0 0 0 0 0 0 0 0 0 0 0 0 0 0.18 0"/>
<feBlend mode="normal" in2="BackgroundImageFix" result="effect1_dropShadow_1218_4995"/>
<feBlend mode="normal" in="SourceGraphic" in2="effect1_dropShadow_1218_4995" result="shape"/>
</filter>
<linearGradient id="paint0_linear_1218_4995" x1="197.67" y1="162.215" x2="197.625" y2="153.844" gradientUnits="userSpaceOnUse">
<stop stop-color="#89AE58" stop-opacity="0"/>
<stop offset="1" stop-color="#5C7738"/>
</linearGradient>
<linearGradient id="paint1_linear_1218_4995" x1="198.013" y1="156.43" x2="198.013" y2="153.566" gradientUnits="userSpaceOnUse">
<stop stop-color="#ABD96F"/>
<stop offset="1" stop-color="#5B733B" stop-opacity="0"/>
</linearGradient>
<linearGradient id="paint2_linear_1218_4995" x1="201.417" y1="152.823" x2="201.417" y2="156.823" gradientUnits="userSpaceOnUse">
<stop stop-color="white" stop-opacity="0"/>
<stop offset="1" stop-color="#5C7738"/>
</linearGradient>
<linearGradient id="paint3_linear_1218_4995" x1="204.887" y1="162.444" x2="212.937" y2="162.01" gradientUnits="userSpaceOnUse">
<stop stop-color="#DEFFB4"/>
<stop offset="1" stop-color="#5B733B" stop-opacity="0"/>
</linearGradient>
<linearGradient id="paint4_linear_1218_4995" x1="212.937" y1="158.948" x2="204.26" y2="163.031" gradientUnits="userSpaceOnUse">
<stop stop-color="white" stop-opacity="0"/>
<stop offset="1" stop-color="#5C7738"/>
</linearGradient>
<linearGradient id="paint5_linear_1218_4995" x1="222.092" y1="199.105" x2="222.054" y2="192.022" gradientUnits="userSpaceOnUse">
<stop stop-color="#89AE58" stop-opacity="0"/>
<stop offset="1" stop-color="#5C7738"/>
</linearGradient>
<linearGradient id="paint6_linear_1218_4995" x1="222.383" y1="194.21" x2="222.383" y2="191.786" gradientUnits="userSpaceOnUse">
<stop stop-color="#ABD96F"/>
<stop offset="1" stop-color="#5B733B" stop-opacity="0"/>
</linearGradient>
<linearGradient id="paint7_linear_1218_4995" x1="225.263" y1="191.158" x2="225.263" y2="194.542" gradientUnits="userSpaceOnUse">
<stop stop-color="white" stop-opacity="0"/>
<stop offset="1" stop-color="#5C7738"/>
</linearGradient>
<linearGradient id="paint8_linear_1218_4995" x1="228.199" y1="199.299" x2="235.011" y2="198.932" gradientUnits="userSpaceOnUse">
<stop stop-color="#DEFFB4"/>
<stop offset="1" stop-color="#5B733B" stop-opacity="0"/>
</linearGradient>
<linearGradient id="paint9_linear_1218_4995" x1="235.011" y1="196.341" x2="227.669" y2="199.796" gradientUnits="userSpaceOnUse">
<stop stop-color="white" stop-opacity="0"/>
<stop offset="1" stop-color="#5C7738"/>
</linearGradient>
<linearGradient id="paint10_linear_1218_4995" x1="117.802" y1="128.003" x2="117.646" y2="98.7032" gradientUnits="userSpaceOnUse">
<stop stop-color="#89AE58" stop-opacity="0"/>
<stop offset="1" stop-color="#5C7738"/>
</linearGradient>
<linearGradient id="paint11_linear_1218_4995" x1="119.005" y1="107.754" x2="119.005" y2="97.7304" gradientUnits="userSpaceOnUse">
<stop stop-color="#ABD96F"/>
<stop offset="1" stop-color="#5B733B" stop-opacity="0"/>
</linearGradient>
<linearGradient id="paint12_linear_1218_4995" x1="130.916" y1="95.1302" x2="130.916" y2="109.13" gradientUnits="userSpaceOnUse">
<stop stop-color="white" stop-opacity="0"/>
<stop offset="1" stop-color="#5C7738"/>
</linearGradient>
<linearGradient id="paint13_linear_1218_4995" x1="143.063" y1="128.805" x2="171.239" y2="127.286" gradientUnits="userSpaceOnUse">
<stop stop-color="#DEFFB4"/>
<stop offset="1" stop-color="#5B733B" stop-opacity="0"/>
</linearGradient>
<linearGradient id="paint14_linear_1218_4995" x1="171.239" y1="116.568" x2="140.87" y2="130.859" gradientUnits="userSpaceOnUse">
<stop stop-color="white" stop-opacity="0"/>
<stop offset="1" stop-color="#5C7738"/>
</linearGradient>
<linearGradient id="paint15_linear_1218_4995" x1="368.557" y1="152.765" x2="368.477" y2="137.954" gradientUnits="userSpaceOnUse">
<stop stop-color="#89AE58" stop-opacity="0"/>
<stop offset="1" stop-color="#5C7738"/>
</linearGradient>
<linearGradient id="paint16_linear_1218_4995" x1="369.165" y1="142.53" x2="369.165" y2="137.463" gradientUnits="userSpaceOnUse">
<stop stop-color="#ABD96F"/>
<stop offset="1" stop-color="#5B733B" stop-opacity="0"/>
</linearGradient>
<linearGradient id="paint17_linear_1218_4995" x1="375.186" y1="136.148" x2="375.186" y2="143.225" gradientUnits="userSpaceOnUse">
<stop stop-color="white" stop-opacity="0"/>
<stop offset="1" stop-color="#5C7738"/>
</linearGradient>
<linearGradient id="paint18_linear_1218_4995" x1="381.326" y1="153.171" x2="395.569" y2="152.403" gradientUnits="userSpaceOnUse">
<stop stop-color="#DEFFB4"/>
<stop offset="1" stop-color="#5B733B" stop-opacity="0"/>
</linearGradient>
<linearGradient id="paint19_linear_1218_4995" x1="395.569" y1="146.985" x2="380.217" y2="154.209" gradientUnits="userSpaceOnUse">
<stop stop-color="white" stop-opacity="0"/>
<stop offset="1" stop-color="#5C7738"/>
</linearGradient>
<linearGradient id="paint20_linear_1218_4995" x1="480.402" y1="170.545" x2="480.336" y2="158.31" gradientUnits="userSpaceOnUse">
<stop stop-color="#89AE58" stop-opacity="0"/>
<stop offset="1" stop-color="#5C7738"/>
</linearGradient>
<linearGradient id="paint21_linear_1218_4995" x1="480.904" y1="162.09" x2="480.904" y2="157.904" gradientUnits="userSpaceOnUse">
<stop stop-color="#ABD96F"/>
<stop offset="1" stop-color="#5B733B" stop-opacity="0"/>
</linearGradient>
<linearGradient id="paint22_linear_1218_4995" x1="485.878" y1="156.818" x2="485.878" y2="162.664" gradientUnits="userSpaceOnUse">
<stop stop-color="white" stop-opacity="0"/>
<stop offset="1" stop-color="#5C7738"/>
</linearGradient>
<linearGradient id="paint23_linear_1218_4995" x1="490.95" y1="170.88" x2="502.716" y2="170.246" gradientUnits="userSpaceOnUse">
<stop stop-color="#DEFFB4"/>
<stop offset="1" stop-color="#5B733B" stop-opacity="0"/>
</linearGradient>
<linearGradient id="paint24_linear_1218_4995" x1="502.716" y1="165.77" x2="490.034" y2="171.738" gradientUnits="userSpaceOnUse">
<stop stop-color="white" stop-opacity="0"/>
<stop offset="1" stop-color="#5C7738"/>
</linearGradient>
<linearGradient id="paint25_linear_1218_4995" x1="404.825" y1="202.435" x2="404.766" y2="191.488" gradientUnits="userSpaceOnUse">
<stop stop-color="#89AE58" stop-opacity="0"/>
<stop offset="1" stop-color="#5C7738"/>
</linearGradient>
<linearGradient id="paint26_linear_1218_4995" x1="405.274" y1="194.87" x2="405.274" y2="191.125" gradientUnits="userSpaceOnUse">
<stop stop-color="#ABD96F"/>
<stop offset="1" stop-color="#5B733B" stop-opacity="0"/>
</linearGradient>
<linearGradient id="paint27_linear_1218_4995" x1="409.724" y1="190.153" x2="409.724" y2="195.384" gradientUnits="userSpaceOnUse">
<stop stop-color="white" stop-opacity="0"/>
<stop offset="1" stop-color="#5C7738"/>
</linearGradient>
<linearGradient id="paint28_linear_1218_4995" x1="414.262" y1="202.735" x2="424.79" y2="202.167" gradientUnits="userSpaceOnUse">
<stop stop-color="#DEFFB4"/>
<stop offset="1" stop-color="#5B733B" stop-opacity="0"/>
</linearGradient>
<linearGradient id="paint29_linear_1218_4995" x1="424.79" y1="198.163" x2="413.443" y2="203.502" gradientUnits="userSpaceOnUse">
<stop stop-color="white" stop-opacity="0"/>
<stop offset="1" stop-color="#5C7738"/>
</linearGradient>
</defs>
</svg>
