<svg width="219" height="219" viewBox="0 0 219 219" fill="none" xmlns="http://www.w3.org/2000/svg">
<g clip-path="url(#clip0_1009_2423)">
<path d="M219 167.491H0V167.601H219V167.491Z" fill="#E6E6E6"/>
<path d="M34.2602 172.379H22.6226V172.489H34.2602V172.379Z" fill="#E6E6E6"/>
<path d="M38.4697 170.189H28.4395V170.299H38.4697V170.189Z" fill="#E6E6E6"/>
<path d="M142.529 170.513H115.614V170.623H142.529V170.513Z" fill="#E6E6E6"/>
<path d="M151.508 170.513H145.052V170.623H151.508V170.513Z" fill="#E6E6E6"/>
<path d="M188.217 171.262H166.904V171.372H188.217V171.262Z" fill="#E6E6E6"/>
<path d="M84.6085 173.01H46.6646V173.12H84.6085V173.01Z" fill="#E6E6E6"/>
<path d="M195.168 171.262H192.063V171.372H195.168V171.262Z" fill="#E6E6E6"/>
<path d="M67.2017 92.1651C68.4209 86.8755 65.1213 81.5991 59.8317 80.3799C54.5422 79.1606 49.2657 82.4603 48.0465 87.7498C46.8273 93.0394 50.1269 98.3158 55.4164 99.535C60.706 100.754 65.9824 97.4546 67.2017 92.1651Z" fill="#F0F0F0"/>
<path d="M124.646 87.9242C123.424 85.2962 124.396 83.3909 127.392 83.3909C129.267 83.3909 131.597 84.1355 133.866 85.34C134.124 84.6523 134.843 84.2406 136.003 84.2406C138.049 84.2406 140.865 85.5152 143.073 87.3066C143.754 86.8508 144.557 86.6111 145.377 86.6189C147.334 86.5401 149.7 87.2715 151.758 88.4629C151.879 88.3484 152.021 88.2592 152.177 88.2005C152.333 88.1419 152.499 88.1149 152.665 88.1213C153.317 88.1432 153.958 88.3014 154.546 88.5858C155.133 88.8702 155.655 89.2744 156.077 89.7725C156.125 89.8295 156.164 89.8908 156.208 89.9477H123.126C122.079 89.0148 123.236 87.9724 124.646 87.9242Z" fill="#F5F5F5"/>
<path d="M60.1987 108.261L87.3022 102.054V167.491H60.1987V108.261Z" fill="#FAFAFA"/>
<path d="M101.366 102.054H87.3022V167.491H101.366V102.054Z" fill="#EBEBEB"/>
<path d="M96.7719 167.491H119.841L119.841 86.4043H96.7719L96.7719 167.491Z" fill="#FAFAFA"/>
<path d="M131.812 86.4043H119.841V167.491H131.812V86.4043Z" fill="#EBEBEB"/>
<path d="M99.8773 86.4043H119.841V80.3774H99.8773V86.4043Z" fill="#FAFAFA"/>
<path d="M99.8773 86.4043H119.841V85.0509H99.8773V86.4043Z" fill="#EBEBEB"/>
<path d="M128.711 80.3774H119.841V86.4043H128.711V80.3774Z" fill="#EBEBEB"/>
<path d="M102.978 80.3774H119.837V74.3506H102.978V80.3774Z" fill="#FAFAFA"/>
<path d="M102.978 80.3774H119.837V79.024H102.978V80.3774Z" fill="#EBEBEB"/>
<path d="M125.605 74.355H119.841V80.3819H125.605V74.355Z" fill="#EBEBEB"/>
<path d="M114.852 65.9366H113.731V74.355H114.852V65.9366Z" fill="#EBEBEB"/>
<path d="M127.988 167.491H144.833V96.9426H127.988V167.491Z" fill="#FAFAFA"/>
<path d="M153.58 96.9426H144.838V167.491H153.58V96.9426Z" fill="#EBEBEB"/>
<path d="M149.209 111.252L161.981 122.202V167.491H149.209V111.252Z" fill="#FAFAFA"/>
<path d="M168.612 122.202H161.981V167.491H168.612V122.202Z" fill="#EBEBEB"/>
<path d="M168.612 122.202H161.981L149.209 111.252H155.836L168.612 122.202Z" fill="#EBEBEB"/>
<path d="M192.676 167.491C192.864 166.439 193.311 165.45 193.977 164.614C194.644 163.779 195.508 163.122 196.491 162.704C195.628 164.144 195.236 165.818 195.37 167.491H192.676Z" fill="#EBEBEB"/>
<path d="M81.5992 167.491C81.4113 166.439 80.964 165.45 80.2979 164.614C79.6318 163.779 78.7679 163.122 77.7842 162.704C78.6478 164.144 79.0398 165.818 78.9055 167.491H81.5992Z" fill="#EBEBEB"/>
<path d="M25.785 167.491C25.785 167.491 25.5704 161.885 23.2271 160.255C24.1863 162.546 23.9804 167.491 23.9804 167.491H25.785Z" fill="#EBEBEB"/>
<path d="M24.9048 167.491C24.9048 167.491 25.1238 164.272 27.4671 163.339C26.5035 164.653 26.7137 167.491 26.7137 167.491H24.9048Z" fill="#EBEBEB"/>
<path d="M83.6057 167.491C83.6057 167.491 83.3692 162.183 79.1206 160.255C81.0215 162.98 80.912 167.491 80.912 167.491H83.6057Z" fill="#EBEBEB"/>
<path d="M41.0317 131.755L44.124 153.567L44.4306 155.749H46.4148L46.1038 153.567L43.0115 131.755H41.0317Z" fill="#E0E0E0"/>
<path d="M126 131.755L129.092 153.567L129.398 155.749H131.383L131.072 153.567L127.979 131.755H126Z" fill="#E0E0E0"/>
<path d="M53.7295 153.567L54.0405 155.748L55.7093 167.509H57.6934L56.0246 155.748L55.718 153.567H53.7295Z" fill="#E6E6E6"/>
<path d="M138.702 153.567L139.013 155.748L140.677 167.509H142.657L140.992 155.748L140.686 153.567H138.702Z" fill="#E6E6E6"/>
<path d="M128.689 153.567L128.378 155.748L126.709 167.509H124.725L126.393 155.748L126.7 153.567H128.689Z" fill="#E6E6E6"/>
<path d="M43.7169 153.567L43.4059 155.748L41.7415 167.509H39.7617L41.4261 155.748L41.7371 153.567H43.7169Z" fill="#E6E6E6"/>
<path d="M38.1804 134.79H128.991L127.305 128.715H36.4941L38.1804 134.79Z" fill="#F5F5F5"/>
<path d="M40.2522 134.79H131.067L129.381 128.715H38.5659L40.2522 134.79Z" fill="#E6E6E6"/>
<path d="M39.4465 142.363H130.257L128.571 136.292H37.7559L39.4465 142.363Z" fill="#F5F5F5"/>
<path d="M41.5178 142.363H132.328L130.642 136.292H39.8315L41.5178 142.363Z" fill="#E6E6E6"/>
<path d="M40.7078 149.949H131.523L129.836 143.879H39.0215L40.7078 149.949Z" fill="#F5F5F5"/>
<path d="M42.784 149.949H133.594L131.908 143.879H41.0977L42.784 149.949Z" fill="#E6E6E6"/>
<path d="M141.859 153.567H51.4473V155.748H141.859V153.567Z" fill="#E6E6E6"/>
<path d="M51.4475 153.567H39.0215V155.748H51.4475V153.567Z" fill="#F5F5F5"/>
<path d="M32.1932 64.592C30.4981 60.9303 31.8471 58.3242 35.9906 58.3242C38.588 58.3242 41.8073 59.3491 44.9477 61.0179C45.3025 60.0675 46.3011 59.4981 47.9042 59.4981C50.7337 59.4981 54.6275 61.2501 57.6848 63.751C58.6257 63.1197 59.7359 62.7883 60.869 62.8006C63.5759 62.6867 66.8521 63.7029 69.6991 65.3497C70.0376 65.0324 70.4881 64.8623 70.9518 64.8767C72.5111 64.811 74.6222 65.8359 75.669 67.1587C75.7347 67.2419 75.7917 67.3207 75.8486 67.404H30.0908C28.6454 66.1031 30.2441 64.6577 32.1932 64.592Z" fill="#F5F5F5"/>
<path d="M152.385 72.143C152.5 72.1364 152.615 72.1364 152.731 72.143C152.626 70.9473 153.243 70.1808 154.57 70.1808C155.75 70.2605 156.891 70.6291 157.895 71.2539C157.553 68.9325 158.652 67.4214 161.132 67.4214C163.133 67.4214 165.669 68.4025 168.175 70.0056C168.394 69.0946 169.129 68.547 170.365 68.547C172.555 68.547 175.621 70.2377 178.117 72.6205C178.773 72.024 179.631 71.6985 180.517 71.7094C182.589 71.5999 185.165 72.5854 187.447 74.1535C187.556 74.0096 187.699 73.8946 187.863 73.8183C188.027 73.742 188.208 73.7067 188.388 73.7155C189.523 73.6585 191.082 74.5301 191.993 75.6952H150.563C149.586 73.8907 150.361 72.3445 152.385 72.143Z" fill="#F5F5F5"/>
<path d="M82.6856 45.6528C82.7993 45.6461 82.9134 45.6461 83.0272 45.6528C82.9221 44.4527 83.544 43.6905 84.8668 43.6905C86.0477 43.7696 87.1909 44.1381 88.1956 44.7636C87.854 42.4379 88.949 40.9268 91.428 40.9268C93.4341 40.9268 95.9657 41.9123 98.4711 43.5153C98.6901 42.6043 99.4259 42.0568 100.661 42.0568C102.851 42.0568 105.917 43.7431 108.414 46.1302C109.071 45.5356 109.928 45.2089 110.814 45.2148C112.886 45.1097 115.461 46.0908 117.743 47.6588C117.853 47.5153 117.996 47.4005 118.16 47.3242C118.324 47.2479 118.504 47.2125 118.685 47.2208C119.819 47.1595 121.383 48.0311 122.29 49.2006H80.8591C79.8867 47.4004 80.662 45.8543 82.6856 45.6528Z" fill="#F5F5F5"/>
<path d="M186.049 159.914L178.266 152.131H172.204L178.932 158.858H177.083V167.491H184.201V159.914H186.049Z" fill="#EBEBEB"/>
<path d="M179.987 159.914L172.204 152.131L164.421 159.914H167.325V167.491H177.083V159.914H179.987Z" fill="#FAFAFA"/>
<path d="M175.708 47.1814L164.035 35.5087H154.942L165.034 45.6002H162.257V58.5431H172.931V47.1814H175.708Z" fill="#C2C2C2"/>
<path opacity="0.4" d="M175.708 47.1814L164.035 35.5087H154.942L165.034 45.6002H162.257V58.5431H172.931V47.1814H175.708Z" fill="white"/>
<path d="M166.615 47.1814L154.942 35.5087L143.27 47.1814H147.628V58.5431H162.257V47.1814H166.615Z" fill="#C2C2C2"/>
<path opacity="0.7" d="M166.615 47.1814L154.942 35.5087L143.27 47.1814H147.628V58.5431H162.257V47.1814H166.615Z" fill="white"/>
<path d="M183.224 93.7757L171.551 82.0986H162.458L172.55 92.1901H169.773V105.133H180.447V93.7757H183.224Z" fill="#C2C2C2"/>
<path opacity="0.4" d="M183.224 93.7757L171.551 82.0986H162.458L172.55 92.1901H169.773V105.133H180.447V93.7757H183.224Z" fill="white"/>
<path d="M174.131 93.7757L162.458 82.0986L150.786 93.7757H155.139V105.133H169.773V93.7757H174.131Z" fill="#C2C2C2"/>
<path opacity="0.7" d="M174.131 93.7757L162.458 82.0986L150.786 93.7757H155.139V105.133H169.773V93.7757H174.131Z" fill="white"/>
<path d="M130.69 105.913L119.013 94.24H109.925L120.016 104.327H117.239V117.274H127.913V105.913H130.69Z" fill="#C2C2C2"/>
<path opacity="0.4" d="M130.69 105.913L119.013 94.24H109.925L120.016 104.327H117.239V117.274H127.913V105.913H130.69Z" fill="white"/>
<path d="M121.597 105.913L109.925 94.24L98.252 105.913H102.606V117.27H117.239V105.913H121.597Z" fill="#C2C2C2"/>
<path opacity="0.7" d="M121.597 105.913L109.925 94.24L98.252 105.913H102.606V117.27H117.239V105.913H121.597Z" fill="white"/>
<path d="M129.994 66.6899H123.713L122.815 65.7964L115.522 52.2184L129.994 66.6899Z" fill="#2F54C6"/>
<path d="M123.691 79.8781H136.923V63.8297H123.691V79.8781Z" fill="#C2C2C2"/>
<path opacity="0.3" d="M123.691 79.8781H136.923V63.8297H123.691V79.8781Z" fill="black"/>
<path d="M129.096 65.7963H140.37L125.894 51.3204H114.625L129.096 65.7963Z" fill="#C2C2C2"/>
<path opacity="0.3" d="M129.096 65.7963H140.37L125.894 51.3204H114.625L129.096 65.7963Z" fill="black"/>
<path d="M123.691 61.736V79.878H105.554V61.736L114.625 52.9279L114.717 53.0198L115.523 53.7995L123.691 61.736Z" fill="#C2C2C2"/>
<path opacity="0.3" d="M115.523 52.2184V58.4993L107.328 66.6899H105.554V62.1873L114.717 53.0199L115.523 52.2184Z" fill="black"/>
<path d="M129.096 65.7963H122.815L114.625 57.6014V51.3204L129.096 65.7963Z" fill="#C2C2C2"/>
<path d="M100.148 65.7963H106.429L114.624 57.6014V51.3204L100.148 65.7963Z" fill="#C2C2C2"/>
<path d="M98.1121 84.2625C94.3759 87.2934 90.5215 90.1448 86.6452 92.948C82.7689 95.7512 78.8401 98.4756 74.8981 101.178C70.9561 103.88 66.9484 106.482 62.9231 109.062C60.9215 110.376 58.8892 111.62 56.87 112.899C55.874 113.585 54.7736 114.106 53.6113 114.441C52.9812 114.611 52.3355 114.716 51.6841 114.756C50.9521 114.817 50.2153 114.777 49.4941 114.638C48.9294 114.523 48.393 114.298 47.9155 113.975C47.438 113.653 47.0289 113.239 46.7115 112.758C46.3942 112.277 46.1748 111.738 46.0661 111.173C45.9573 110.607 45.9612 110.025 46.0777 109.461C46.0777 109.395 46.1083 109.312 46.1258 109.242C46.3224 108.532 46.6172 107.854 47.0018 107.227C47.3254 106.668 47.7056 106.144 48.1363 105.663C48.9476 104.766 49.8987 104.006 50.9526 103.412C52.9893 102.159 55.0085 100.885 57.0539 99.6582C61.1317 97.1659 65.2489 94.7438 69.388 92.3523C73.5271 89.9608 77.71 87.6438 81.928 85.3837C86.1459 83.1237 90.3989 80.9205 94.7614 78.8882C95.4652 78.583 96.2552 78.5406 96.9877 78.7689C97.7201 78.9971 98.3462 79.4807 98.7521 80.1317C99.158 80.7827 99.3167 81.5578 99.1992 82.3159C99.0817 83.0741 98.6959 83.7648 98.1121 84.2625Z" fill="#C2C2C2"/>
<path d="M98.1121 84.2625C94.3759 87.2934 90.5215 90.1448 86.6452 92.948C82.7689 95.7512 78.8401 98.4756 74.8981 101.178C70.9561 103.88 66.9484 106.482 62.9231 109.062C60.9215 110.376 58.8892 111.62 56.87 112.899C55.874 113.585 54.7736 114.106 53.6113 114.441C52.9812 114.611 52.3355 114.716 51.6841 114.756C50.9521 114.817 50.2153 114.777 49.4941 114.638C48.9294 114.523 48.393 114.298 47.9155 113.975C47.438 113.653 47.0289 113.239 46.7115 112.758C46.3942 112.277 46.1748 111.738 46.0661 111.173C45.9573 110.607 45.9612 110.025 46.0777 109.461C46.0777 109.395 46.1083 109.312 46.1258 109.242C46.3224 108.532 46.6172 107.854 47.0018 107.227C47.3254 106.668 47.7056 106.144 48.1363 105.663C48.9476 104.766 49.8987 104.006 50.9526 103.412C52.9893 102.159 55.0085 100.885 57.0539 99.6582C61.1317 97.1659 65.2489 94.7438 69.388 92.3523C73.5271 89.9608 77.71 87.6438 81.928 85.3837C86.1459 83.1237 90.3989 80.9205 94.7614 78.8882C95.4652 78.583 96.2552 78.5406 96.9877 78.7689C97.7201 78.9971 98.3462 79.4807 98.7521 80.1317C99.158 80.7827 99.3167 81.5578 99.1992 82.3159C99.0817 83.0741 98.6959 83.7648 98.1121 84.2625Z" fill="#C2C2C2"/>
<path opacity="0.5" d="M98.1121 84.2625C94.3759 87.2934 90.5215 90.1448 86.6452 92.948C82.7689 95.7512 78.8401 98.4756 74.8981 101.178C70.9561 103.88 66.9484 106.482 62.9231 109.062C60.9215 110.376 58.8892 111.62 56.87 112.899C55.874 113.585 54.7736 114.106 53.6113 114.441C52.9812 114.611 52.3355 114.716 51.6841 114.756C50.9521 114.817 50.2153 114.777 49.4941 114.638C48.9294 114.523 48.393 114.298 47.9155 113.975C47.438 113.653 47.0289 113.239 46.7115 112.758C46.3942 112.277 46.1748 111.738 46.0661 111.173C45.9573 110.607 45.9612 110.025 46.0777 109.461C46.0777 109.395 46.1083 109.312 46.1258 109.242C46.3224 108.532 46.6172 107.854 47.0018 107.227C47.3254 106.668 47.7056 106.144 48.1363 105.663C48.9476 104.766 49.8987 104.006 50.9526 103.412C52.9893 102.159 55.0085 100.885 57.0539 99.6582C61.1317 97.1659 65.2489 94.7438 69.388 92.3523C73.5271 89.9608 77.71 87.6438 81.928 85.3837C86.1459 83.1237 90.3989 80.9205 94.7614 78.8882C95.4652 78.583 96.2552 78.5406 96.9877 78.7689C97.7201 78.9971 98.3462 79.4807 98.7521 80.1317C99.158 80.7827 99.3167 81.5578 99.1992 82.3159C99.0817 83.0741 98.6959 83.7648 98.1121 84.2625Z" fill="white"/>
<path d="M148.223 50.4838C144.883 45.1342 140.03 40.8953 134.281 38.3031C128.531 35.711 122.141 34.882 115.92 35.9211C109.699 36.9602 103.926 39.8206 99.3306 44.1406C94.7352 48.4607 91.524 54.0464 90.1031 60.1914C88.6821 66.3364 89.1152 72.7648 91.3476 78.6637C93.58 84.5626 97.5114 89.6671 102.645 93.3317C107.778 96.9963 113.883 99.0564 120.187 99.2517C126.491 99.4469 132.712 97.7684 138.062 94.4284C141.615 92.2104 144.696 89.3143 147.13 85.9054C149.563 82.4965 151.301 78.6416 152.245 74.5609C153.189 70.4802 153.319 66.2535 152.629 62.1224C151.939 57.9912 150.442 54.0364 148.223 50.4838ZM99.8288 80.7058C97.1935 76.4842 95.8692 71.5758 96.0234 66.6015C96.1776 61.6272 97.8033 56.8103 100.695 52.76C103.587 48.7096 107.615 45.6077 112.269 43.8465C116.924 42.0852 121.996 41.7438 126.845 42.8653C131.694 43.9868 136.101 46.521 139.509 50.1472C142.918 53.7735 145.175 58.329 145.994 63.2378C146.813 68.1465 146.159 73.1881 144.113 77.7249C142.067 82.2617 138.722 86.0899 134.501 88.7256C131.697 90.4756 128.577 91.6562 125.317 92.2C122.057 92.7438 118.722 92.6402 115.503 91.8951C112.283 91.1499 109.242 89.7779 106.552 87.8573C103.863 85.9367 101.578 83.5051 99.8288 80.7015V80.7058Z" fill="#C2C2C2"/>
<path d="M148.223 50.4838C144.883 45.1342 140.03 40.8953 134.281 38.3031C128.531 35.711 122.141 34.882 115.92 35.9211C109.699 36.9602 103.926 39.8206 99.3306 44.1406C94.7352 48.4607 91.524 54.0464 90.1031 60.1914C88.6821 66.3364 89.1152 72.7648 91.3476 78.6637C93.58 84.5626 97.5114 89.6671 102.645 93.3317C107.778 96.9963 113.883 99.0564 120.187 99.2517C126.491 99.4469 132.712 97.7684 138.062 94.4284C141.615 92.2104 144.696 89.3143 147.13 85.9054C149.563 82.4965 151.301 78.6416 152.245 74.5609C153.189 70.4802 153.319 66.2535 152.629 62.1224C151.939 57.9912 150.442 54.0364 148.223 50.4838ZM99.8288 80.7058C97.1935 76.4842 95.8692 71.5758 96.0234 66.6015C96.1776 61.6272 97.8033 56.8103 100.695 52.76C103.587 48.7096 107.615 45.6077 112.269 43.8465C116.924 42.0852 121.996 41.7438 126.845 42.8653C131.694 43.9868 136.101 46.521 139.509 50.1472C142.918 53.7735 145.175 58.329 145.994 63.2378C146.813 68.1465 146.159 73.1881 144.113 77.7249C142.067 82.2617 138.722 86.0899 134.501 88.7256C131.697 90.4756 128.577 91.6562 125.317 92.2C122.057 92.7438 118.722 92.6402 115.503 91.8951C112.283 91.1499 109.242 89.7779 106.552 87.8573C103.863 85.9367 101.578 83.5051 99.8288 80.7015V80.7058Z" fill="#C2C2C2"/>
<path opacity="0.5" d="M148.223 50.4838C144.883 45.1342 140.03 40.8953 134.281 38.3031C128.531 35.711 122.141 34.882 115.92 35.9211C109.699 36.9602 103.926 39.8206 99.3306 44.1406C94.7352 48.4607 91.524 54.0464 90.1031 60.1914C88.6821 66.3364 89.1152 72.7648 91.3476 78.6637C93.58 84.5626 97.5114 89.6671 102.645 93.3317C107.778 96.9963 113.883 99.0564 120.187 99.2517C126.491 99.4469 132.712 97.7684 138.062 94.4284C141.615 92.2104 144.696 89.3143 147.13 85.9054C149.563 82.4965 151.301 78.6416 152.245 74.5609C153.189 70.4802 153.319 66.2535 152.629 62.1224C151.939 57.9912 150.442 54.0364 148.223 50.4838ZM99.8288 80.7058C97.1935 76.4842 95.8692 71.5758 96.0234 66.6015C96.1776 61.6272 97.8033 56.8103 100.695 52.76C103.587 48.7096 107.615 45.6077 112.269 43.8465C116.924 42.0852 121.996 41.7438 126.845 42.8653C131.694 43.9868 136.101 46.521 139.509 50.1472C142.918 53.7735 145.175 58.329 145.994 63.2378C146.813 68.1465 146.159 73.1881 144.113 77.7249C142.067 82.2617 138.722 86.0899 134.501 88.7256C131.697 90.4756 128.577 91.6562 125.317 92.2C122.057 92.7438 118.722 92.6402 115.503 91.8951C112.283 91.1499 109.242 89.7779 106.552 87.8573C103.863 85.9367 101.578 83.5051 99.8288 80.7015V80.7058Z" fill="white"/>
<path opacity="0.2" d="M144.628 52.7308C147.523 57.3699 148.977 62.7633 148.808 68.229C148.638 73.6948 146.851 78.9875 143.673 83.4379C140.496 87.8883 136.07 91.2966 130.956 93.2318C125.841 95.167 120.268 95.5423 114.94 94.3102C109.612 93.0781 104.769 90.2939 101.024 86.3096C97.2781 82.3254 94.798 77.32 93.897 71.9263C92.996 66.5327 93.7144 60.993 95.9616 56.0076C98.2087 51.0223 101.884 46.8152 106.522 43.9182C109.602 41.9941 113.032 40.6957 116.614 40.0973C120.196 39.4988 123.862 39.612 127.4 40.4304C130.939 41.2488 134.282 42.7563 137.238 44.8668C140.193 46.9773 142.705 49.6496 144.628 52.7308Z" fill="#FAFAFA"/>
<path opacity="0.1" d="M148.556 63.4618L105.632 90.2586C102.132 87.8835 99.2236 84.7367 97.1309 81.0606L143.997 51.7979C146.388 55.2862 147.948 59.2764 148.556 63.4618Z" fill="#E6E6E6"/>
</g>
<defs>
<clipPath id="clip0_1009_2423">
<rect width="219" height="219" fill="white"/>
</clipPath>
</defs>
</svg>
