<svg width="273" height="217" viewBox="0 0 273 217" fill="none" xmlns="http://www.w3.org/2000/svg">
<path d="M99.8731 10.4981C100.212 8.06978 96.7742 6.07117 94.1962 5.86284C92.9658 5.75868 91.6898 5.94747 90.5245 5.54384C88.0051 4.66497 86.996 1.40339 84.5286 0.335725C82.6863 -0.438983 80.5705 0.251093 78.7867 1.14949C77.0029 2.04789 75.2321 3.18066 73.24 3.31086C71.5083 3.42154 69.6204 2.77703 68.1035 3.62335C66.9708 4.27436 66.3783 5.5764 65.3367 6.32506C64.2528 6.9953 62.9977 7.33677 61.7236 7.30809C60.4531 7.27366 59.1876 7.47906 57.9933 7.91354C56.841 8.44086 55.8905 9.66477 56.1314 10.9082L99.8731 10.4981Z" fill="#EBEBEB"/>
<path d="M272.724 154.184C273.284 150.141 267.574 146.814 263.284 146.469C261.24 146.3 259.118 146.612 257.177 145.935C252.985 144.477 251.318 139.054 247.21 137.322C244.151 136.02 240.622 137.186 237.654 138.676C234.685 140.167 231.755 142.049 228.435 142.264C225.551 142.446 222.42 141.378 219.894 142.791C218.012 143.839 217.029 146.007 215.298 147.283C213.566 148.559 211.392 148.8 209.282 148.917C207.173 149.034 204.999 149.047 203.085 149.926C201.171 150.805 199.582 152.83 199.979 154.9L272.724 154.184Z" fill="#EBEBEB"/>
<path d="M55.6756 55.5158C56.0988 52.4235 51.7305 49.878 48.4494 49.6111C46.8869 49.4874 45.2659 49.7282 43.7816 49.2074C40.5721 48.0877 39.2896 43.9407 36.1517 42.6192C33.8146 41.6296 31.1128 42.515 28.8408 43.6543C26.5688 44.7936 24.3293 46.2583 21.7903 46.4016C19.5834 46.5383 17.1876 45.7505 15.2802 46.7987C13.8414 47.6059 13.0928 49.2595 11.7647 50.236C10.4366 51.2126 8.77652 51.4014 7.162 51.486C5.54749 51.5706 3.90693 51.5902 2.42261 52.2607C0.938299 52.9312 -0.253057 54.4807 0.0464099 56.0626L55.6756 55.5158Z" fill="#EBEBEB"/>
<path d="M187.818 122.616C186.266 122.616 184.74 122.209 183.395 121.434C182.05 120.659 180.932 119.543 180.154 118.2C179.376 116.857 178.965 115.332 178.961 113.78C178.958 112.227 179.364 110.701 180.136 109.355L205.526 65.0857C206.292 63.7311 207.405 62.6051 208.751 61.8236C210.096 61.042 211.626 60.6332 213.182 60.6393C214.733 60.63 216.259 61.0325 217.604 61.8057C218.949 62.5788 220.065 63.6949 220.838 65.0401L246.488 109.159C247.268 110.504 247.68 112.029 247.684 113.583C247.688 115.137 247.283 116.665 246.51 118.013C245.737 119.361 244.623 120.482 243.28 121.264C241.937 122.046 240.412 122.46 238.858 122.466L187.825 122.622L187.818 122.616ZM213.208 63.2759C212.116 63.2725 211.042 63.5603 210.098 64.1095C209.154 64.6587 208.374 65.4496 207.837 66.4007L182.447 110.67C181.905 111.614 181.621 112.684 181.623 113.773C181.625 114.862 181.913 115.931 182.458 116.873C183.004 117.815 183.787 118.598 184.73 119.142C185.673 119.686 186.743 119.972 187.831 119.973L238.864 119.817C239.951 119.81 241.016 119.519 241.955 118.971C242.894 118.424 243.672 117.64 244.213 116.698C244.754 115.756 245.038 114.689 245.038 113.602C245.037 112.516 244.751 111.448 244.209 110.507L218.559 66.3942C218.023 65.4463 217.244 64.6579 216.302 64.11C215.361 63.562 214.291 63.2742 213.201 63.2759H213.208Z" fill="#EBEBEB"/>
<path d="M208.221 82.4287L209.413 98.945C209.458 99.5967 209.741 100.209 210.208 100.666C210.674 101.123 211.292 101.393 211.945 101.425C212.631 101.461 213.305 101.231 213.827 100.784C214.349 100.337 214.68 99.7068 214.751 99.0231L216.444 82.4027C216.473 82.106 216.439 81.8063 216.344 81.5236C216.25 81.2408 216.096 80.9814 215.894 80.7624C215.691 80.5433 215.445 80.3697 215.17 80.253C214.896 80.1362 214.6 80.079 214.302 80.0851L210.272 80.1762C209.987 80.1826 209.707 80.2467 209.447 80.3647C209.188 80.4828 208.955 80.6522 208.764 80.8629C208.572 81.0735 208.425 81.321 208.332 81.5901C208.238 81.8593 208.201 82.1446 208.221 82.4287Z" fill="#EBEBEB"/>
<path d="M216.405 110.683C216.16 111.441 215.696 112.109 215.071 112.603C214.446 113.097 213.689 113.395 212.895 113.459C212.101 113.523 211.306 113.35 210.61 112.963C209.914 112.575 209.349 111.99 208.986 111.281C208.622 110.572 208.477 109.772 208.568 108.98C208.659 108.189 208.983 107.443 209.498 106.835C210.014 106.228 210.698 105.787 211.463 105.568C212.229 105.349 213.043 105.362 213.801 105.605C214.306 105.767 214.774 106.027 215.178 106.369C215.583 106.712 215.915 107.132 216.157 107.603C216.399 108.075 216.545 108.59 216.588 109.118C216.631 109.647 216.569 110.178 216.405 110.683Z" fill="#EBEBEB"/>
<path d="M179.446 217L113.694 216.954C105.791 216.954 99.3716 210.216 99.3716 201.909V28.7395C99.3716 20.4326 105.791 13.6945 113.694 13.7011L179.414 13.7401C187.324 13.7401 193.736 20.4781 193.736 28.7851L193.704 201.955C193.769 210.269 187.356 217 179.446 217Z" fill="#6D6D6D"/>
<path d="M179.427 19.8727H166.68C165.82 19.9149 165.012 20.2962 164.432 20.9331C163.852 21.57 163.549 22.4107 163.588 23.271V25.6993C163.627 26.5606 163.322 27.4022 162.741 28.0393C162.16 28.6765 161.35 29.0571 160.489 29.0976H135.653C134.791 29.0554 133.982 28.6732 133.402 28.0348C132.822 27.3965 132.52 26.5541 132.56 25.6928V23.271C132.599 22.4107 132.296 21.57 131.716 20.9331C131.137 20.2962 130.328 19.9149 129.468 19.8727H113.844C108.304 19.8727 103.812 24.5925 103.812 30.4126V199.429C103.812 205.243 108.297 209.963 113.831 209.969L179.427 210.008C184.967 210.008 189.459 205.295 189.459 199.475L189.446 30.4321C189.446 24.573 184.967 19.8727 179.427 19.8727Z" fill="white"/>
<path d="M121.689 194.013V198.147C121.688 198.228 121.666 198.307 121.624 198.377C121.583 198.446 121.524 198.504 121.453 198.543C121.382 198.582 121.302 198.602 121.221 198.599C121.14 198.597 121.061 198.574 120.992 198.531L117.737 196.461C117.672 196.419 117.619 196.363 117.582 196.295C117.546 196.228 117.526 196.153 117.526 196.076C117.526 196 117.546 195.925 117.582 195.857C117.619 195.79 117.672 195.734 117.737 195.692L120.992 193.622C121.061 193.579 121.141 193.555 121.222 193.553C121.304 193.551 121.385 193.572 121.456 193.611C121.527 193.651 121.586 193.71 121.627 193.78C121.668 193.851 121.689 193.931 121.689 194.013Z" fill="#E0E0E0"/>
<path d="M148.419 196.037C148.418 196.601 148.25 197.152 147.935 197.62C147.621 198.088 147.176 198.452 146.654 198.667C146.133 198.882 145.56 198.937 145.007 198.827C144.455 198.716 143.947 198.444 143.549 198.045C143.151 197.646 142.88 197.138 142.771 196.585C142.661 196.032 142.718 195.459 142.934 194.938C143.15 194.417 143.515 193.972 143.984 193.659C144.453 193.346 145.004 193.179 145.568 193.179C146.325 193.181 147.05 193.483 147.584 194.019C148.119 194.554 148.419 195.28 148.419 196.037Z" fill="#E0E0E0"/>
<path d="M172.943 193.551H170.117C169.445 193.551 168.9 194.096 168.9 194.768V197.606C168.9 198.279 169.445 198.824 170.117 198.824H172.943C173.615 198.824 174.16 198.279 174.16 197.606V194.768C174.16 194.096 173.615 193.551 172.943 193.551Z" fill="#E0E0E0"/>
<path d="M178.327 102.148C182.526 84.7647 171.838 67.2682 154.454 63.069C137.07 58.8699 119.573 69.5581 115.374 86.942C111.175 104.326 121.863 121.822 139.247 126.021C156.631 130.221 174.127 119.532 178.327 102.148Z" fill="#F5F5F5"/>
<path d="M148.296 108.801C148.294 109.331 148.136 109.848 147.841 110.287C147.545 110.727 147.126 111.069 146.636 111.27C146.147 111.471 145.608 111.522 145.089 111.417C144.57 111.312 144.094 111.056 143.721 110.68C143.348 110.304 143.095 109.826 142.994 109.306C142.892 108.787 142.948 108.249 143.152 107.76C143.357 107.272 143.702 106.855 144.144 106.563C144.585 106.271 145.104 106.117 145.633 106.119C146.341 106.124 147.018 106.409 147.517 106.912C148.016 107.414 148.296 108.093 148.296 108.801Z" fill="#6D6D6D"/>
<path d="M140.275 105.364C140.958 104.629 141.782 104.04 142.699 103.633C143.616 103.226 144.606 103.01 145.609 102.996C146.612 102.983 147.607 103.173 148.534 103.556C149.462 103.938 150.302 104.504 151.004 105.221C152.371 106.601 154.506 104.485 153.139 103.105C152.156 102.115 150.985 101.331 149.695 100.8C148.405 100.269 147.021 100.001 145.626 100.012C144.231 100.024 142.852 100.314 141.571 100.867C140.29 101.419 139.132 102.222 138.166 103.229C136.831 104.628 138.947 106.77 140.288 105.364H140.275Z" fill="#6D6D6D"/>
<path d="M131.186 92.9297C135.255 89.4142 140.112 87.2007 145.548 87.1877C150.974 87.1103 156.226 89.1083 160.228 92.7734C161.634 94.0754 163.776 91.9857 162.364 90.6576C157.801 86.4317 151.799 84.1037 145.58 84.1475C139.324 84.1475 133.765 86.7515 129.084 90.7683C127.619 92.0378 129.735 94.1666 131.206 92.9036L131.186 92.9297Z" fill="#6D6D6D"/>
<path d="M134.774 99.8109C136.131 98.2969 137.786 97.0805 139.636 96.2383C141.486 95.3962 143.491 94.9465 145.524 94.9178C147.556 94.889 149.573 95.2818 151.446 96.0713C153.319 96.8608 155.008 98.0299 156.407 99.5049C157.761 100.892 159.897 98.7758 158.543 97.3826C156.864 95.6286 154.844 94.238 152.606 93.297C150.368 92.3559 147.961 91.8846 145.534 91.912C143.106 91.9395 140.71 92.4652 138.494 93.4566C136.279 94.4481 134.29 95.884 132.652 97.6755C131.35 99.0947 133.452 101.237 134.774 99.8109Z" fill="#6D6D6D"/>
<path d="M170.9 87.2578C171.69 82.7932 168.711 78.5338 164.246 77.7442C159.782 76.9545 155.522 79.9337 154.732 84.3982C153.943 88.8628 156.922 93.1222 161.387 93.9118C165.851 94.7015 170.111 91.7223 170.9 87.2578Z" fill="#D6D6D6"/>
<path d="M166.2 83.5325L165.036 82.3679L159.82 87.5835L160.985 88.7481L166.2 83.5325Z" fill="white"/>
<path d="M160.987 82.3618L159.823 83.5264L165.038 88.742L166.203 87.5774L160.987 82.3618Z" fill="white"/>
<path d="M144.676 37.9515C145.083 37.7066 145.521 37.5162 145.978 37.3851L146.245 36.0831L148.413 36.044L148.725 37.346C149.18 37.4614 149.618 37.6365 150.027 37.8668L151.114 37.1377L152.677 38.6481L151.993 39.7678C152.238 40.1752 152.428 40.613 152.56 41.0698L153.862 41.3368L153.901 43.5111L152.599 43.8171C152.486 44.272 152.313 44.7098 152.084 45.1192L152.8 46.2129L151.297 47.7753L150.177 47.1243C149.769 47.3667 149.331 47.5549 148.875 47.6842L148.608 48.9862L146.44 49.0252L146.128 47.7232C145.673 47.6066 145.235 47.4316 144.826 47.2024L143.725 47.9185L142.163 46.4147L142.846 45.2949C142.601 44.8879 142.41 44.4501 142.28 43.9929L140.978 43.726L140.939 41.5581L142.241 41.2456C142.355 40.7912 142.528 40.3535 142.755 39.9436L142.039 38.8434L143.55 37.2874L144.669 37.9385L144.676 37.9515ZM145.828 40.8485C145.508 41.1801 145.293 41.5993 145.211 42.053C145.129 42.5066 145.183 42.9745 145.367 43.3972C145.551 43.82 145.856 44.1787 146.244 44.4281C146.632 44.6774 147.085 44.8061 147.546 44.7979C148.007 44.7897 148.455 44.645 148.834 44.382C149.212 44.1191 149.505 43.7497 149.673 43.3206C149.842 42.8916 149.88 42.4221 149.782 41.9717C149.684 41.5212 149.454 41.1099 149.122 40.7899C148.678 40.3611 148.081 40.1264 147.463 40.1374C146.845 40.1483 146.257 40.4041 145.828 40.8485Z" fill="#E0E0E0"/>
<path d="M117.145 42.8015C116.494 42.8015 115.589 42.8015 114.723 42.8015C113.688 42.8015 112.653 42.8015 111.93 42.8015C111.844 42.8015 111.761 42.7672 111.7 42.7062C111.639 42.6451 111.605 42.5624 111.605 42.476C111.604 42.4336 111.611 42.3914 111.627 42.3519C111.643 42.3125 111.666 42.2766 111.696 42.2462C111.725 42.2159 111.761 42.1918 111.8 42.1754C111.839 42.159 111.881 42.1505 111.924 42.1505C112.646 42.1505 113.694 42.1505 114.736 42.1505C115.778 42.1505 116.806 42.1896 117.529 42.1505C117.571 42.1497 117.613 42.1573 117.653 42.1729C117.692 42.1885 117.728 42.2119 117.759 42.2416C117.789 42.2713 117.813 42.3068 117.829 42.3459C117.846 42.3851 117.854 42.4271 117.854 42.4695C117.855 42.5123 117.848 42.5548 117.832 42.5946C117.816 42.6344 117.793 42.6708 117.764 42.7016C117.734 42.7324 117.699 42.7571 117.659 42.7743C117.62 42.7914 117.578 42.8007 117.535 42.8015H117.145Z" fill="#6D6D6D"/>
<path d="M113.909 44.9889C113.864 44.988 113.819 44.9777 113.777 44.9587C113.736 44.9397 113.699 44.9123 113.668 44.8783L111.715 42.6453C111.662 42.5838 111.633 42.5052 111.633 42.4239C111.633 42.3427 111.662 42.2641 111.715 42.2026L113.668 40.1714C113.697 40.1369 113.732 40.1086 113.772 40.0883C113.812 40.0681 113.856 40.0563 113.9 40.0537C113.945 40.051 113.99 40.0577 114.032 40.0732C114.074 40.0886 114.112 40.1126 114.145 40.1436C114.177 40.1746 114.202 40.2119 114.22 40.2532C114.237 40.2945 114.245 40.339 114.245 40.3838C114.244 40.4285 114.234 40.4727 114.216 40.5134C114.197 40.5542 114.17 40.5907 114.137 40.6206L112.412 42.437L114.196 44.4486C114.237 44.4958 114.264 44.554 114.273 44.6162C114.282 44.6783 114.273 44.7418 114.247 44.799C114.221 44.8561 114.179 44.9044 114.126 44.9381C114.073 44.9718 114.011 44.9895 113.948 44.9889H113.909Z" fill="#6D6D6D"/>
<path d="M181.016 40.9071C181.573 40.9071 182.025 40.4553 182.025 39.898C182.025 39.3407 181.573 38.8889 181.016 38.8889C180.459 38.8889 180.007 39.3407 180.007 39.898C180.007 40.4553 180.459 40.9071 181.016 40.9071Z" fill="#6D6D6D"/>
<path d="M182.024 43.0879C182.026 43.2893 181.967 43.4865 181.856 43.6546C181.745 43.8226 181.586 43.9537 181.4 44.0314C181.215 44.1091 181.01 44.1297 180.812 44.0908C180.615 44.0518 180.433 43.9549 180.291 43.8125C180.148 43.6701 180.051 43.4885 180.012 43.2909C179.973 43.0933 179.994 42.8886 180.072 42.7027C180.149 42.5169 180.281 42.3584 180.449 42.2473C180.617 42.1362 180.814 42.0775 181.015 42.0788C181.283 42.0788 181.54 42.1851 181.729 42.3744C181.918 42.5636 182.024 42.8203 182.024 43.0879Z" fill="#6D6D6D"/>
<path d="M181.016 47.287C181.573 47.287 182.025 46.8352 182.025 46.2779C182.025 45.7206 181.573 45.2689 181.016 45.2689C180.459 45.2689 180.007 45.7206 180.007 46.2779C180.007 46.8352 180.459 47.287 181.016 47.287Z" fill="#6D6D6D"/>
<path d="M124.918 139.08C123.383 139.248 121.838 139.304 120.295 139.249C118.755 139.304 117.212 139.247 115.68 139.08C117.212 138.913 118.755 138.856 120.295 138.911C121.838 138.856 123.383 138.913 124.918 139.08Z" fill="#6D6D6D"/>
<path d="M141.499 149.887C141.499 149.978 135.822 150.056 128.824 150.056C121.825 150.056 116.148 149.978 116.148 149.887C116.148 149.796 121.819 149.718 128.824 149.718C135.829 149.718 141.499 149.796 141.499 149.887Z" fill="#6D6D6D"/>
<path d="M141.499 160.635C141.499 160.726 135.822 160.804 128.824 160.804C121.825 160.804 116.148 160.726 116.148 160.635C116.148 160.544 121.819 160.466 128.824 160.466C135.829 160.466 141.499 160.531 141.499 160.635Z" fill="#6D6D6D"/>
<path d="M175.006 145.831H165.736C163.496 145.831 161.68 147.645 161.68 149.884C161.68 152.122 163.496 153.936 165.736 153.936H175.006C177.246 153.936 179.062 152.122 179.062 149.884C179.062 147.645 177.246 145.831 175.006 145.831Z" fill="#EBEBEB"/>
<path d="M169.082 149.887C169.082 150.559 168.883 151.216 168.51 151.775C168.136 152.334 167.605 152.769 166.984 153.027C166.363 153.284 165.68 153.351 165.021 153.22C164.362 153.089 163.756 152.765 163.281 152.29C162.806 151.815 162.482 151.209 162.351 150.55C162.22 149.891 162.287 149.207 162.544 148.586C162.802 147.966 163.237 147.435 163.796 147.061C164.355 146.688 165.012 146.489 165.684 146.489C166.13 146.489 166.572 146.577 166.984 146.747C167.397 146.918 167.771 147.168 168.087 147.484C168.402 147.8 168.653 148.174 168.824 148.586C168.994 148.999 169.082 149.441 169.082 149.887Z" fill="#E0E0E0"/>
<path d="M175.013 164.678H165.736C164.66 164.678 163.629 164.251 162.868 163.49C162.107 162.729 161.68 161.698 161.68 160.622C161.68 159.546 162.107 158.515 162.868 157.754C163.629 156.994 164.66 156.566 165.736 156.566H175.013C176.089 156.566 177.12 156.994 177.881 157.754C178.641 158.515 179.069 159.546 179.069 160.622C179.069 161.698 178.641 162.729 177.881 163.49C177.12 164.251 176.089 164.678 175.013 164.678Z" fill="#EBEBEB"/>
<path d="M165.684 164.02C167.561 164.02 169.082 162.499 169.082 160.622C169.082 158.745 167.561 157.224 165.684 157.224C163.807 157.224 162.286 158.745 162.286 160.622C162.286 162.499 163.807 164.02 165.684 164.02Z" fill="#E0E0E0"/>
<path d="M141.499 171.429C141.499 171.527 135.822 171.598 128.824 171.598C121.825 171.598 116.148 171.527 116.148 171.429C116.148 171.331 121.819 171.26 128.824 171.26C135.829 171.26 141.499 171.338 141.499 171.429Z" fill="#6D6D6D"/>
<path d="M175.013 176.683H165.736C165.204 176.684 164.676 176.579 164.184 176.376C163.692 176.173 163.245 175.875 162.868 175.499C162.492 175.123 162.193 174.676 161.989 174.184C161.785 173.693 161.68 173.166 161.68 172.633C161.68 171.558 162.107 170.526 162.868 169.765C163.629 169.005 164.66 168.578 165.736 168.578H175.013C176.089 168.578 177.12 169.005 177.881 169.765C178.641 170.526 179.069 171.558 179.069 172.633C179.069 173.166 178.964 173.693 178.76 174.184C178.556 174.676 178.257 175.123 177.88 175.499C177.504 175.875 177.057 176.173 176.565 176.376C176.073 176.579 175.545 176.684 175.013 176.683Z" fill="#EBEBEB"/>
<path d="M165.684 176.032C167.561 176.032 169.082 174.51 169.082 172.633C169.082 170.757 167.561 169.235 165.684 169.235C163.807 169.235 162.286 170.757 162.286 172.633C162.286 174.51 163.807 176.032 165.684 176.032Z" fill="#E0E0E0"/>
<path d="M252.459 31.2509C253.393 25.4652 249.46 20.0178 243.674 19.0838C237.888 18.1499 232.441 22.083 231.507 27.8687C230.573 33.6544 234.506 39.1017 240.292 40.0357C246.078 40.9697 251.525 37.0366 252.459 31.2509Z" fill="#D6D6D6"/>
<path d="M240.473 53.2893C240.415 53.2893 240.363 51.3362 240.363 48.908C240.363 46.4797 240.415 44.5331 240.473 44.5331C240.586 45.9885 240.623 47.4488 240.584 48.908C240.623 50.3693 240.586 51.8318 240.473 53.2893Z" fill="#D6D6D6"/>
<path d="M234.36 42.0658C234.412 42.0658 233.416 43.9277 232.133 46.1477C230.851 48.3676 229.764 50.1514 229.711 50.1189C229.659 50.0863 230.655 48.2635 231.938 46.037C233.22 43.8105 234.308 42.0333 234.36 42.0658Z" fill="#D6D6D6"/>
<path d="M228.084 38.1598C227.31 38.9195 226.483 39.6243 225.61 40.2691C224.785 40.9745 223.915 41.6269 223.006 42.2221C223.781 41.4624 224.608 40.7576 225.48 40.1128C226.303 39.4038 227.173 38.7513 228.084 38.1598Z" fill="#D6D6D6"/>
<path d="M251.058 48.9732C250.931 48.6248 250.837 48.2651 250.778 47.899C250.629 47.248 250.407 46.3105 250.127 45.2949C249.847 44.2794 249.58 43.381 249.379 42.7299C249.243 42.3828 249.143 42.023 249.079 41.6558C249.265 41.9796 249.415 42.3222 249.528 42.6779C249.769 43.3289 250.069 44.2208 250.342 45.2363C250.615 46.2519 250.804 47.1894 250.921 47.8404C251.007 48.2121 251.053 48.5918 251.058 48.9732Z" fill="#D6D6D6"/>
<path d="M261.82 41.3367C260.728 40.5261 259.68 39.6568 258.682 38.7327C257.636 37.8677 256.639 36.9462 255.694 35.9724C256.786 36.783 257.834 37.6523 258.832 38.5764C259.877 39.4413 260.875 40.3628 261.82 41.3367Z" fill="#D6D6D6"/>
<path d="M265.94 30.8423C265.502 30.8154 265.067 30.7545 264.638 30.66C263.851 30.5298 262.763 30.3606 261.559 30.2239C260.355 30.0871 259.254 30.0025 258.46 29.9504C258.024 29.9495 257.588 29.9125 257.158 29.8398C257.59 29.7811 258.026 29.7658 258.46 29.7942C259.261 29.7942 260.368 29.8658 261.579 30.0025C262.789 30.1392 263.883 30.3345 264.664 30.5038C265.099 30.5771 265.526 30.6904 265.94 30.8423Z" fill="#D6D6D6"/>
<path d="M265.954 20.5238C265.954 20.5889 263.675 21.1748 260.824 21.8909C257.972 22.607 255.655 23.0953 255.616 23.0367C255.577 22.9781 257.901 22.3857 260.746 21.6761C263.591 20.9664 265.941 20.4652 265.954 20.5238Z" fill="#D6D6D6"/>
<path d="M253.975 8.50604C254.021 8.50604 252.927 10.2898 251.521 12.4121C250.115 14.5344 248.917 16.2401 248.878 16.201C248.839 16.162 249.926 14.4173 251.332 12.2949C252.149 10.988 253.031 9.72339 253.975 8.50604Z" fill="#D6D6D6"/>
<path d="M242.068 5.99304C242.102 6.47854 242.102 6.96582 242.068 7.45132C242.068 8.34972 242.068 9.58665 242.068 10.9538C242.068 12.3209 242.068 13.5578 242.107 14.4693C242.141 14.9526 242.141 15.4377 242.107 15.921C242.015 15.4447 241.965 14.961 241.958 14.4758C241.905 13.5774 241.86 12.3339 241.86 10.9603C241.86 9.58665 241.899 8.35623 241.951 7.44481C241.946 6.95834 241.985 6.47242 242.068 5.99304Z" fill="#D6D6D6"/>
<path d="M233.058 17.2101C233.006 17.2427 231.886 15.511 230.564 13.3431C229.243 11.1752 228.201 9.38493 228.253 9.35238C228.305 9.31983 229.425 11.058 230.753 13.2585C232.081 15.4589 233.142 17.1841 233.058 17.2101Z" fill="#D6D6D6"/>
<path d="M227.674 21.7867C227.293 21.7712 226.915 21.7122 226.548 21.611C225.858 21.4612 224.914 21.2334 223.879 20.9599C222.844 20.6865 221.926 20.3089 221.275 20.0811C220.911 19.9654 220.559 19.8127 220.227 19.6254C220.603 19.6938 220.971 19.7984 221.327 19.9379C221.978 20.1462 222.922 20.4456 223.931 20.7451C224.94 21.0446 225.884 21.305 226.574 21.4873C226.949 21.5521 227.318 21.6524 227.674 21.7867Z" fill="#D6D6D6"/>
<path d="M225.33 29.9374C224.213 30.1608 223.082 30.3065 221.945 30.3736C220.816 30.5189 219.678 30.5928 218.54 30.595C219.657 30.3706 220.788 30.2227 221.925 30.1523C223.055 30.0108 224.192 29.939 225.33 29.9374Z" fill="#D6D6D6"/>
</svg>
