<svg width="159" height="31" viewBox="0 0 159 31" fill="none" xmlns="http://www.w3.org/2000/svg">
<path d="M26.8946 16.3392V16.9176C26.8946 20.359 24.0895 23.1352 20.6771 23.1352H0V0H19.8095C23.2219 0 26.0271 2.80514 26.0271 6.21758V6.79596C26.0271 8.5311 25.3041 10.0927 24.1763 11.2206C25.7957 12.3484 26.8946 14.2281 26.8946 16.3392ZM7.22974 5.78379V8.67569H17.3514C18.1322 8.67569 18.7973 8.03947 18.7973 7.22974C18.7973 6.44893 18.1322 5.78379 17.3514 5.78379H7.22974ZM19.6649 15.9054C19.6649 15.1246 18.9998 14.4595 18.219 14.4595H7.22974V17.3514H18.219C18.9998 17.3514 19.6649 16.7152 19.6649 15.9054Z" fill="white"/>
<path d="M40.778 14.4595V23.1352H33.5483V0H40.778V8.67569H55.2375V0H62.4672V23.1352H55.2375V14.4595H40.778Z" fill="white"/>
<path d="M89.345 0H96.5747V12.8689C96.5747 18.7973 91.7741 23.569 85.8747 23.569H79.8017C73.8733 23.569 69.1017 18.7973 69.1017 12.8689V0H76.3314V12.2906C76.3314 15.0089 78.5293 17.2068 81.2476 17.2068H84.4287C87.1182 17.2068 89.345 15.0089 89.345 12.2906V0Z" fill="white"/>
<path d="M138.016 0.263786H145.246V23.399H138.016L138.016 0.263786Z" fill="white"/>
<path d="M151.77 0.263786H159V23.399H151.77L151.77 0.263786Z" fill="white"/>
<path d="M103.15 0.0102009V6.66116L108.428 11.2055L117.224 18.7223L131.299 6.88731V0.0102009L117.224 11.8452L103.15 0.0102009Z" fill="white"/>
<path d="M120.423 21.441L131.298 12.1649V30.8771L120.423 21.441Z" fill="#ABD96F"/>
<path d="M107.948 15.7489L103.15 11.6189V23.6139H107.948V15.7489Z" fill="white"/>
</svg>
