<?xml version="1.0" encoding="UTF-8"?>
<svg version="1.1" xmlns="http://www.w3.org/2000/svg" width="512" height="512">
<path d="M0 0 C0.74765625 -0.03738281 1.4953125 -0.07476563 2.265625 -0.11328125 C9.20053285 1.07524855 14.3748883 7.65682692 19.10118389 12.41200161 C20.34610984 13.65256724 20.34610984 13.65256724 21.61618581 14.9181948 C23.91953144 17.21549807 26.21834667 19.51722574 28.51532616 21.82089105 C31.01511399 24.32575206 33.52069174 26.82481028 36.0255354 29.32461363 C40.41500934 33.70686145 44.80074613 38.09282181 49.18405914 42.48123169 C55.70211069 49.00684179 62.22585998 55.52673336 68.75074946 62.04550539 C80.40307113 73.68728906 92.04965739 85.33479719 103.69382361 96.98473737 C113.88311727 107.17905887 124.07426374 117.37152353 134.26726723 127.5621357 C135.28080135 128.57544067 135.28080135 128.57544067 136.31481091 129.60921644 C139.05753099 132.35131386 141.80025814 135.09340421 144.54299692 137.83548292 C170.27947784 163.56584381 196.0101191 189.30203736 221.7381587 215.04083849 C244.606267 237.9184393 267.4795416 260.79086267 290.35717773 283.65893555 C316.04990029 309.34095402 341.73939513 335.02619403 367.4236744 360.71665674 C370.16050325 363.45412705 372.89733999 366.19158946 375.63418007 368.92904854 C376.30807623 369.60310286 376.9819724 370.27715717 377.67628965 370.97163738 C387.86234608 381.15997079 398.05087194 391.3458303 408.24059105 401.53050041 C419.82348971 413.10768842 431.40282419 424.68842792 442.97743317 436.27390402 C449.45907058 442.76142569 455.94345897 449.24616891 462.43180388 455.72698239 C466.76140811 460.05211398 471.08738649 464.38084933 475.41039016 468.7125782 C477.876237 471.18319843 480.34365414 473.65219365 482.81546857 476.11684465 C485.47370992 478.76905124 488.12578588 481.42727107 490.77633953 484.08715725 C491.54966398 484.85579937 492.32298843 485.62444148 493.11974695 486.41637579 C502.17645234 495.5374298 502.17645234 495.5374298 502.1875 501.8125 C502.05160043 506.10406546 500.93534619 508.31452711 497.75 511.3125 C494.18657696 513.09421152 490.63048283 512.90034297 486.75 512.3125 C480.64906242 509.08081848 477.01085729 504.35673638 473.5549469 498.55252075 C454.74335135 468.74912939 428.02579463 434.23073405 391.76595306 425.84288025 C367.03752134 420.62279284 341.3152209 420.58354386 316.15234375 420.6171875 C315.18973037 420.61769895 314.22711699 420.61821039 313.2353335 420.61873734 C288.20278014 420.65013498 263.21017957 421.43694137 238.20169032 422.47520375 C223.70015357 423.07110408 209.2021951 423.47908306 194.69116211 423.75683594 C193.14683147 423.78648651 193.14683147 423.78648651 191.57130223 423.81673609 C185.37548919 423.93433879 179.17957831 424.04598046 172.98362808 424.15608129 C163.95851369 424.31767759 154.93361678 424.49038349 145.90882874 424.66921997 C144.45259753 424.69789137 144.45259753 424.69789137 142.9669475 424.72714199 C129.61815776 424.99361841 116.27563838 425.3604554 102.93222474 425.82297882 C100.22841792 425.91629839 97.52453648 426.00702109 94.82061303 426.0968926 C93.07145179 426.15528872 91.32229254 426.21374462 89.57313538 426.27226257 C88.7237969 426.30065701 87.87445843 426.32905145 86.99938243 426.35830633 C82.09253916 426.52473417 77.1870166 426.71153756 72.28156149 426.91463052 C69.29287708 427.03410852 66.30376582 427.1356544 63.31427903 427.23275556 C61.31880606 427.30338357 59.32417974 427.39682556 57.32969612 427.49135482 C43.94231913 427.89660049 32.65697293 424.4941961 22.75 415.3125 C13.56443768 405.24549483 10.12372889 394.087723 10.24206543 380.62402344 C10.23270549 378.95525461 10.23270549 378.95525461 10.22315645 377.25277328 C10.2073182 373.55891903 10.21979524 369.86573308 10.23242188 366.171875 C10.22699668 363.509787 10.22001542 360.84774364 10.21118164 358.18566895 C10.19346498 351.7261965 10.19720561 345.26691076 10.2088322 338.80743122 C10.21789341 333.55418182 10.21907896 328.30098447 10.21473694 323.04772949 C10.21412401 322.29792179 10.21351107 321.54811409 10.21287957 320.77558494 C10.21160057 319.25200811 10.21030371 317.72843129 10.2089892 316.20485449 C10.19760349 301.94338946 10.21066548 287.68202755 10.23219067 273.42057943 C10.25005984 261.20351177 10.24695517 248.98659617 10.22851562 236.76953125 C10.20707331 222.55648931 10.19870194 208.34353758 10.21096468 194.13048172 C10.21223878 192.61274466 10.21349626 191.09500759 10.21473694 189.57727051 C10.21535404 188.83066091 10.21597114 188.08405132 10.21660694 187.31481719 C10.22004978 182.07244548 10.2142546 176.83013135 10.20481873 171.58776855 C10.1935599 165.19249787 10.19671983 158.79742338 10.2179417 152.40217495 C10.22840039 149.14384842 10.23048299 145.88591281 10.21934509 142.62757874 C10.20835524 139.0850564 10.22219613 135.54344165 10.24206543 132.00097656 C10.2286811 130.47817896 10.2286811 130.47817896 10.21502638 128.92461777 C10.34734811 116.69615692 14.50902042 106.32910119 22.75 97.3125 C31.12868533 89.65456179 40.1982043 85.74093218 51.45703125 84.76928711 C52.44807861 84.68271347 53.43912598 84.59613983 54.46020508 84.50694275 C55.2158374 84.44277664 55.97146973 84.37861053 56.75 84.3125 C56.22683701 83.79155762 55.70367401 83.27061523 55.16465759 82.73388672 C50.20494143 77.79431055 45.2477117 72.85225519 40.29317379 67.90748596 C37.74667306 65.36617641 35.19926235 62.82579395 32.6496582 60.28759766 C30.18351795 57.83242136 27.71991699 55.37472208 25.257967 52.91534424 C23.87339044 51.53348095 22.48627877 50.15415925 21.09910583 48.77490234 C16.63535205 44.31154044 12.32522983 39.78822536 8.21284485 34.9989624 C6.42790667 32.94116993 4.54530293 31.00935397 2.6015625 29.1015625 C1.90675781 28.41449219 1.21195313 27.72742188 0.49609375 27.01953125 C-0.20386719 26.33246094 -0.90382813 25.64539063 -1.625 24.9375 C-3.05175991 23.53617253 -4.47635507 22.1326365 -5.8984375 20.7265625 C-6.51895996 20.1176416 -7.13948242 19.5087207 -7.77880859 18.88134766 C-10.75279589 15.70994998 -10.57652223 12.7415613 -10.54296875 8.57421875 C-10.11344199 5.2582722 -8.64075646 3.56262373 -6.25 1.3125 C-3.97885524 0.17692762 -2.52706381 0.08165682 0 0 Z M36.59375 115.984375 C33.89070346 120.50232422 32.62412733 124.20329621 32.62695217 129.41230392 C32.62496112 130.2249325 32.62297007 131.03756107 32.62091869 131.87481475 C32.62383153 132.76197244 32.62674437 133.64913013 32.62974548 134.56317139 C32.62889106 135.50988968 32.62803663 136.45660798 32.62715632 137.4320147 C32.62550605 140.61192213 32.63101553 143.7917771 32.63647461 146.97167969 C32.6367566 149.24810281 32.63659851 151.52452603 32.6360321 153.8009491 C32.63574461 159.98853936 32.64163361 166.17611033 32.64860606 172.3636961 C32.65484757 178.8272816 32.65544403 185.29086752 32.65663147 191.75445557 C32.65938874 202.60567601 32.6656395 213.45688853 32.67456055 224.30810547 C32.68373968 235.48486292 32.69081806 246.66161845 32.69506836 257.83837891 C32.69533108 258.52732399 32.69559381 259.21626908 32.69586449 259.92609128 C32.69716953 263.38232919 32.69843324 266.83856712 32.69967639 270.29480505 C32.71004296 298.96737483 32.72773036 327.63993714 32.75 356.3125 C36.46870345 353.16701348 40.15629701 350.03499555 43.58851624 346.5740509 C44.26260025 345.89700607 44.93668427 345.21996124 45.63119507 344.5223999 C46.34466095 343.80062561 47.05812683 343.07885132 47.79321289 342.33520508 C48.56488297 341.55886215 49.33655304 340.78251923 50.13160706 339.98265076 C51.79626783 338.30753929 53.45982828 336.6313338 55.12239265 334.95414162 C57.75527783 332.29913559 60.39219806 329.64820093 63.03038025 326.99845886 C70.52721243 319.46811661 78.01995252 311.9337522 85.50219727 304.38891602 C90.08762594 299.76522279 94.68096971 295.14947651 99.27874565 290.53806114 C101.02660361 288.78215321 102.77168111 287.02347297 104.51390266 285.26197243 C106.94780981 282.80158955 109.39086044 280.35064287 111.83618164 277.90161133 C112.55167175 277.17376434 113.26716187 276.44591736 114.0043335 275.6960144 C118.43258449 271.28543536 122.34889052 267.80849513 128.75 266.875 C136.28263928 267.97350989 141.55770903 274.85922914 146.6484375 280.015625 C147.48339752 280.85341492 148.31835754 281.69120483 149.17861938 282.55438232 C151.83216283 285.21907916 154.47864915 287.89066186 157.125 290.5625 C158.92792348 292.3754595 160.73130391 294.1879647 162.53515625 296 C166.94541112 300.43225102 171.34989961 304.87016922 175.75 309.3125 C179.53301227 307.74306316 181.92256547 305.38148723 184.79394531 302.49560547 C185.28220795 302.00763489 185.77047058 301.51966431 186.27352905 301.01690674 C187.87984962 299.40919725 189.47897713 297.79452899 191.078125 296.1796875 C192.19298317 295.06109765 193.30828487 293.94294971 194.42401123 292.82522583 C197.35470609 289.88690675 200.27934422 286.94263045 203.20275879 283.99707031 C206.18882725 280.99051738 209.18058859 277.98964118 212.171875 274.98828125 C218.03683456 269.10189314 223.89540732 263.209199 229.75 257.3125 C226.03984473 252.8858929 222.22851707 248.67035124 218.1328125 244.59765625 C217.63079315 244.09705185 217.1287738 243.59644745 216.61154175 243.08067322 C215.03506329 241.50971402 213.45511427 239.94230123 211.875 238.375 C210.79403726 237.29906273 209.71330617 236.22289269 208.6328125 235.14648438 C206.00787359 232.53246708 203.37981372 229.92161404 200.75 227.3125 C199.98107422 227.6211499 199.21214844 227.9297998 198.41992188 228.24780273 C195.70944146 229.32867372 192.98725762 230.36390625 190.25 231.375 C189.3321875 231.71660156 188.414375 232.05820313 187.46875 232.41015625 C173.5374878 237.03389414 158.64562827 234.6357806 145.625 228.625 C132.27717782 221.57983642 124.45417708 210.50090507 119.75 196.3125 C115.50776877 181.48714153 119.02206984 165.6636141 125.75 152.3125 C120.49507767 146.3534085 115.15694859 140.48712911 109.70255089 134.71068573 C107.1700266 132.02332532 104.67199813 129.31684771 102.23925781 126.53857422 C89.94328957 112.17696548 89.94328957 112.17696548 72.81347656 105.80078125 C61.00969209 105.10558009 44.05947896 105.18933448 36.59375 115.984375 Z M141.75 169.3125 C138.8006383 177.19319446 138.42277031 185.55618584 141.25 193.5625 C145.53128221 202.76875371 152.24676683 208.83986667 161.75 212.3125 C169.05865526 214.08600676 175.6653209 213.72430565 182.75 211.3125 C181.31870372 208.04770247 179.56710013 205.88130858 177.05053711 203.37011719 C176.29312729 202.60963074 175.53571747 201.84914429 174.75535583 201.06561279 C173.52873985 199.84977509 173.52873985 199.84977509 172.27734375 198.609375 C171.43909561 197.77158508 170.60084747 196.93379517 169.73719788 196.07061768 C167.96673086 194.30316956 166.19383622 192.53815035 164.41870117 190.77539062 C161.68935427 188.06434184 158.96813568 185.3453345 156.24804688 182.625 C154.52911798 180.9109847 152.80973265 179.197427 151.08984375 177.484375 C150.27007553 176.6657196 149.45030731 175.84706421 148.60569763 175.00360107 C147.85143997 174.25572327 147.09718231 173.50784546 146.32006836 172.73730469 C145.65325546 172.07430359 144.98644257 171.41130249 144.29942322 170.72821045 C142.97675889 169.20007762 142.97675889 169.20007762 141.75 169.3125 Z M242.53536987 275.28662109 C241.61603668 276.21039551 240.69670349 277.13416992 239.74951172 278.0859375 C239.242034 278.59312317 238.73455627 279.10030884 238.21170044 279.62286377 C236.52958124 281.30638023 234.85466303 282.99687837 233.1796875 284.6875 C232.01712885 285.85378737 230.85412888 287.01963498 229.69070435 288.18505859 C226.62518554 291.25822497 223.56571911 294.33734954 220.50744629 297.41772461 C217.3874819 300.55812324 214.26186997 303.69288949 211.13671875 306.828125 C205.00224968 312.9840638 198.8741588 319.14630416 192.75 325.3125 C197.28323609 330.69082533 197.28323609 330.69082533 202.14453125 335.76953125 C202.70720703 336.32447266 203.26988281 336.87941406 203.84960938 337.45117188 C204.41486328 338.00353516 204.98011719 338.55589844 205.5625 339.125 C212.66874437 346.07454659 212.66874437 346.07454659 212.8828125 349.3359375 C212.88023437 350.11195313 212.87765625 350.88796875 212.875 351.6875 C212.87757813 352.45835937 212.88015625 353.22921875 212.8828125 354.0234375 C212.75182128 356.28110965 212.49592213 358.17729791 211.75 360.3125 C207.84578884 362.6090948 204.19843977 362.70968212 199.75 362.3125 C195.10155333 360.04834288 191.80286001 356.63614359 188.21557617 353.00512695 C187.58086395 352.37070679 186.94615173 351.73628662 186.29220581 351.0826416 C184.20434858 348.99339578 182.12365695 346.89716478 180.04296875 344.80078125 C178.59323602 343.34731673 177.14305986 341.89429438 175.69245911 340.44169617 C171.88224743 336.62386118 168.07808112 332.80005743 164.27514648 328.97497559 C160.39084336 325.07018606 156.50084749 321.17107685 152.61132812 317.27148438 C144.98530606 309.62403536 137.36565906 301.97026802 129.75 294.3125 C126.46801734 295.7489888 124.29917772 297.51592016 121.77630615 300.04568481 C120.99670532 300.82253632 120.21710449 301.59938782 119.41387939 302.39978027 C118.14504913 303.67939636 118.14504913 303.67939636 116.85058594 304.98486328 C115.95267334 305.88248383 115.05476074 306.78010437 114.12963867 307.70492554 C111.67091022 310.16308047 109.21839451 312.62735045 106.76694775 315.09276438 C104.20272546 317.66949408 101.63283355 320.24055644 99.0635376 322.81222534 C94.20058017 327.6813975 89.34274323 332.55564518 84.48672509 337.43173683 C78.95743582 342.98338529 73.42246252 348.52935188 67.88700438 354.07484841 C56.50166614 365.48108848 45.12348753 376.89444296 33.75 388.3125 C35.02004809 392.30636835 36.1308727 395.30277261 38.875 398.5 C39.41382813 399.15355469 39.95265625 399.80710937 40.5078125 400.48046875 C47.4967111 406.19091029 55.55069086 405.73325973 64.1262207 405.67326355 C65.48193671 405.67457319 66.83765196 405.67720254 68.19336319 405.68103105 C71.90370122 405.68771683 75.61377786 405.67576986 79.32408261 405.66069686 C83.33079575 405.64771309 87.33749476 405.65212762 91.34422302 405.65440369 C98.28115314 405.65597494 105.21799844 405.64658119 112.15490723 405.62969017 C122.18443644 405.6052847 132.21392475 405.59749332 142.24348044 405.5937262 C158.51667295 405.58716414 174.78982029 405.56720965 191.06298828 405.53881836 C206.86865005 405.51127143 222.67429954 405.49004095 238.47998047 405.47729492 C239.45462623 405.47650675 240.429272 405.47571858 241.43345249 405.47490653 C246.32307863 405.47099135 251.21270487 405.46720024 256.10233116 405.46347082 C296.65158553 405.43238257 337.20079018 405.37955346 377.75 405.3125 C374.08516579 400.94774324 370.32585058 396.76202854 366.29644775 392.72523499 C365.78228829 392.20880997 365.26812883 391.69238495 364.73838878 391.16031069 C363.03659788 389.4522531 361.33131827 387.74772473 359.62597656 386.04321289 C358.39662652 384.81086707 357.16748056 383.57831762 355.93852234 382.34558105 C352.61689571 379.01516028 349.29206937 375.68795212 345.96636295 372.36160588 C343.88896879 370.28349947 341.81228886 368.20468208 339.73586273 366.12560844 C332.49358742 358.87410024 325.2487522 351.62516111 318.00146484 344.37866211 C311.24054437 337.61834432 304.48524219 330.85244789 297.73250413 324.08395773 C291.93298342 318.27138971 286.12964268 312.46265475 280.32327437 306.65692705 C276.85570468 303.18961285 273.38972061 299.72074841 269.9275589 296.24803352 C266.67831045 292.98914951 263.42435706 289.73504005 260.16663551 286.48462677 C258.96920023 285.28824249 257.77348747 284.09013144 256.57958794 282.89021873 C254.9561526 281.25913406 253.32675163 279.63425981 251.69561768 278.01087952 C250.78346119 277.09817826 249.8713047 276.18547701 248.93150711 275.24511814 C245.95045779 272.60417787 245.50877681 272.63612642 242.53536987 275.28662109 Z " fill="#CECECE" transform="translate(10.25,-0.3125)"/>
<path d="M0 0 C1.05752501 -0.00644889 2.11505003 -0.01289778 3.20462126 -0.0195421 C4.95350774 -0.01489629 4.95350774 -0.01489629 6.73772526 -0.01015663 C7.97322166 -0.01468774 9.20871806 -0.01921886 10.48165375 -0.02388728 C13.91785591 -0.034383 17.35384931 -0.03585276 20.79005277 -0.03349853 C24.49375599 -0.0330912 28.19742773 -0.04412184 31.90111637 -0.05361366 C39.16187791 -0.07024628 46.42260697 -0.07572433 53.68338596 -0.07683842 C59.58806039 -0.07778834 65.4927241 -0.08189586 71.39739513 -0.08823967 C88.14149681 -0.10586247 104.88557283 -0.11507755 121.62968384 -0.11357872 C122.53288161 -0.11349881 123.43607937 -0.1134189 124.36664677 -0.11333656 C125.72310076 -0.11321392 125.72310076 -0.11321392 127.10695786 -0.1130888 C141.74538709 -0.11227682 156.38371318 -0.13138961 171.0221126 -0.1596133 C186.05595784 -0.1883702 201.08975286 -0.20215187 216.12362629 -0.20042574 C224.56248516 -0.19976255 233.00123609 -0.20522322 241.44007015 -0.22678185 C248.62970637 -0.24503116 255.81918579 -0.24931073 263.00883519 -0.235763 C266.67415972 -0.22925061 270.3391838 -0.22905261 274.00447941 -0.2464695 C277.98748255 -0.26520028 281.96979572 -0.25259978 285.95281315 -0.23720741 C287.09866097 -0.24749454 288.2445088 -0.25778167 289.42507929 -0.26838052 C302.06739111 -0.16081402 312.55397844 3.69994677 321.91669559 12.25726891 C331.09273491 22.29693545 334.54326231 33.46452127 334.42463017 46.90105247 C334.43399011 48.56263762 334.43399011 48.56263762 334.44353914 50.25779015 C334.45937646 53.9354919 334.4469007 57.61252231 334.43427372 61.29022789 C334.43969899 63.94084136 334.44668033 66.59141001 334.45551395 69.24201012 C334.47323059 75.67374435 334.46948982 82.10529107 334.45786339 88.53703242 C334.44880139 93.76834346 334.44761698 98.99960223 334.45195866 104.23091888 C334.45257159 104.9776625 334.45318452 105.72440612 334.45381603 106.49377834 C334.45509503 108.01115244 334.45639189 109.52852652 334.45770639 111.04590059 C334.46909231 125.24969203 334.45603021 139.45337994 334.43450493 153.65715439 C334.41663941 165.82216953 334.41973737 177.98703192 334.43817997 190.1520443 C334.45962828 204.30613228 334.46799 218.46012967 334.45573092 232.61423165 C334.45445683 234.1260888 334.45319934 235.63794598 334.45195866 237.14980316 C334.451033 238.26536032 334.451033 238.26536032 334.45008865 239.40345399 C334.44664733 244.62281368 334.45243777 249.84211549 334.46187687 255.06146622 C334.47314255 261.43035817 334.46996169 267.79905315 334.44875389 274.16792279 C334.43830375 277.41219669 334.43620206 280.65607874 334.4473505 283.90036011 C334.50309735 301.77701375 334.29366135 316.31207162 321.91669559 330.25726891 C318.42297181 333.4536545 315.98136703 334.49002303 311.35419559 334.75726891 C308.25932486 334.59054186 306.81081682 334.20320315 303.97919559 332.75726891 C301.24709356 329.44563008 300.08463995 326.55984336 299.91669559 322.25726891 C300.53451912 319.45288734 301.41779954 317.78988637 302.91669559 315.25726891 C303.90669559 314.92726891 304.89669559 314.59726891 305.91669559 314.25726891 C307.03604633 312.61096697 307.03604633 312.61096697 307.91669559 310.25726891 C308.30728153 309.40262047 308.30728153 309.40262047 308.70575809 308.53070641 C308.98161747 307.88359703 309.25747684 307.23648766 309.54169559 306.56976891 C309.93228153 305.66678062 309.93228153 305.66678062 310.33075809 304.74555016 C311.37857249 300.2958317 312.18480346 295.53705454 309.87787533 291.38969314 C308.31978563 289.52769555 306.67227074 287.85576345 304.91840458 286.17668724 C304.27320331 285.52379614 303.62800203 284.87090505 302.96324921 284.19822937 C300.80056683 282.02074797 298.6073441 279.87695352 296.41278934 277.73163414 C294.85422592 276.1756099 293.29764266 274.6176001 291.74289799 273.05776024 C287.5191479 268.8314274 283.26822013 264.63342151 279.01189899 260.43992686 C274.56753984 256.05182103 270.14864692 251.63822276 265.72699833 247.22725487 C258.30300409 239.82805733 250.86347624 232.44474884 243.41181278 225.07343102 C235.73784533 217.48212038 228.07342191 209.88138025 220.42157841 202.26776695 C219.94963311 201.79818616 219.4776878 201.32860537 218.99144113 200.84479486 C216.62380325 198.48890263 214.25636131 196.13281368 211.88899136 193.77665222 C192.25985875 174.24159829 172.59884629 154.73889414 152.91669559 135.25726891 C151.79532678 136.20961578 150.67520602 137.16343234 149.55561161 138.11786461 C148.9317104 138.64886269 148.30780918 139.17986076 147.66500187 139.72694969 C145.60723318 141.52814609 143.72677667 143.45291515 141.85419559 145.44476891 C137.90670929 149.422679 134.57758061 151.86922317 128.91669559 152.69476891 C125.03093448 152.12809541 122.93877298 150.72987768 119.91669559 148.25726891 C117.66878147 144.6091389 117.46756847 141.90328329 118.08466434 137.72601891 C119.62896383 133.14387209 122.95828759 130.12002878 126.356637 126.79096031 C128.16410587 125.01404021 129.93647318 123.20510333 131.70966434 121.39398766 C134.31701992 118.7460408 136.92800494 116.10217245 139.56122684 113.47992516 C140.11141483 112.9308651 140.66160282 112.38180504 141.22846317 111.8161068 C144.61923662 108.68521909 146.95657649 106.79727308 151.66669559 106.63226891 C155.49666663 106.84350053 157.53592594 107.28878784 160.35041142 109.90901756 C161.040508 110.54949091 161.73060459 111.18996426 162.4416132 111.84984589 C168.08420278 117.33818844 173.6689174 122.88063992 179.22724247 128.45429039 C180.66661287 129.89394321 182.10620419 131.33337519 183.54599857 132.77260399 C187.43607236 136.66239192 191.32306419 140.55524625 195.20949459 144.44867396 C199.27826989 148.52371806 203.34989412 152.59591362 207.4212122 156.66841698 C215.12238556 164.37269327 222.82100713 172.07951422 230.5187068 179.78726107 C239.28578897 188.56553664 248.05572486 197.34095885 256.82589722 206.11614692 C274.85933214 224.16002273 292.8891947 242.20746459 310.91669559 260.25726891 C310.98677543 231.71101523 311.0396788 203.16477444 311.07213211 174.61845207 C311.08760123 161.36391385 311.10869171 148.10942907 311.14301395 134.85492516 C311.17291481 123.30235874 311.19227027 111.74983104 311.19896108 100.197227 C311.20287214 94.08017339 311.21206484 87.96323051 311.23388577 81.84621239 C311.25426162 76.08758301 311.2605271 70.32910992 311.25601864 64.57044792 C311.25684334 62.45812442 311.26280234 60.34579565 311.27431202 58.23350334 C311.28927314 55.34592973 311.28563584 52.45894349 311.27745914 49.57135582 C311.28619767 48.73864993 311.29493619 47.90594403 311.30393952 47.04800463 C311.25235694 40.29247109 310.01768205 34.74527918 305.54169559 29.44476891 C300.06446618 24.88041106 295.84176023 23.1336085 288.76887703 23.12977695 C287.72246105 23.12676931 286.67604508 23.12376166 285.59791952 23.12066287 C284.44958795 23.12241324 283.30125637 23.12416361 282.11812687 23.12596703 C280.28681883 23.12279345 280.28681883 23.12279345 278.41851467 23.11955577 C275.73629049 23.11563071 273.05413683 23.11353774 270.37191677 23.11452103 C266.00790722 23.11611389 261.64392057 23.11091156 257.27991581 23.10489464 C250.94428419 23.0967818 244.6086566 23.09183791 238.27302074 23.08860397 C228.26123833 23.08310812 218.24949 23.06621197 208.23772526 23.04726219 C204.81302458 23.04090553 201.38832381 23.0345971 197.96362305 23.02828503 C196.67983407 23.02590938 196.67983407 23.02590938 195.37010996 23.02348575 C185.62774707 23.00554907 175.88538178 22.98932206 166.14301395 22.97430992 C165.2523937 22.97293405 164.36177344 22.97155818 163.44416469 22.97014061 C149.00481163 22.94820075 134.56546733 22.93745183 120.12610055 22.92993917 C105.30579772 22.92187278 90.48557018 22.89859903 75.66531032 22.8619855 C66.52127277 22.83994233 57.37738993 22.83030137 48.23332714 22.83648584 C41.96928772 22.83965647 35.7053806 22.82835662 29.44138212 22.80559143 C25.82553973 22.79290384 22.20999204 22.78677742 18.59413815 22.79800797 C14.67666551 22.81001922 10.75968645 22.79129935 6.84224796 22.76952171 C5.69614711 22.77796425 4.55004625 22.78640679 3.36921507 22.79510516 C-4.32604822 22.71565362 -4.32604822 22.71565362 -8.24662018 20.34244061 C-10.92697772 17.29945389 -11.93103095 15.42469871 -12.45830441 11.38226891 C-11.98191939 7.41239377 -10.55290015 5.36190355 -8.08330441 2.25726891 C-4.78911299 0.0611413 -3.82378231 0.00588221 0 0 Z " fill="#CDCDCD" transform="translate(157.0833044052124,84.74273109436035)"/>
</svg>
